<svg xmlns="http://www.w3.org/2000/svg" xmlns:xlink="http://www.w3.org/1999/xlink" width="500" zoomAndPan="magnify" viewBox="0 0 375 374.999991" height="500" preserveAspectRatio="xMidYMid meet" version="1.0"><defs><filter x="0%" y="0%" width="100%" height="100%" id="b023cf88de"><feColorMatrix values="0 0 0 0 1 0 0 0 0 1 0 0 0 0 1 0 0 0 1 0" color-interpolation-filters="sRGB"/></filter><g/><clipPath id="f11409a552"><path d="M 77.984375 80.808594 L 297.316406 80.808594 L 297.316406 292.691406 L 77.984375 292.691406 Z M 77.984375 80.808594 " clip-rule="nonzero"/></clipPath><clipPath id="584e935fca"><path d="M 95.234375 80.808594 L 279.765625 80.808594 C 284.339844 80.808594 288.726562 82.625 291.960938 85.859375 C 295.195312 89.09375 297.015625 93.484375 297.015625 98.058594 L 297.015625 275.441406 C 297.015625 280.015625 295.195312 284.40625 291.960938 287.640625 C 288.726562 290.875 284.339844 292.691406 279.765625 292.691406 L 95.234375 292.691406 C 90.660156 292.691406 86.273438 290.875 83.039062 287.640625 C 79.804688 284.40625 77.984375 280.015625 77.984375 275.441406 L 77.984375 98.058594 C 77.984375 93.484375 79.804688 89.09375 83.039062 85.859375 C 86.273438 82.625 90.660156 80.808594 95.234375 80.808594 Z M 95.234375 80.808594 " clip-rule="nonzero"/></clipPath><clipPath id="f334d1bb5c"><path d="M 130.679688 228 L 244.679688 228 L 244.679688 287.171875 L 130.679688 287.171875 Z M 130.679688 228 " clip-rule="nonzero"/></clipPath><clipPath id="1d5ab4eb2b"><path d="M 130.679688 227 L 244.679688 227 L 244.679688 286 L 130.679688 286 Z M 130.679688 227 " clip-rule="nonzero"/></clipPath><mask id="29bd24ad34"><g filter="url(#b023cf88de)"><rect x="-37.5" width="450" fill="#000000" y="-37.499999" height="449.999989" fill-opacity="0.15"/></g></mask><clipPath id="5dcd705a54"><path d="M 0.199219 0.0390625 L 52.28125 0.0390625 L 52.28125 6.519531 L 0.199219 6.519531 Z M 0.199219 0.0390625 " clip-rule="nonzero"/></clipPath><clipPath id="ccf9febbf1"><rect x="0" width="53" y="0" height="7"/></clipPath><mask id="46e355c123"><g filter="url(#b023cf88de)"><rect x="-37.5" width="450" fill="#000000" y="-37.499999" height="449.999989" fill-opacity="0.15"/></g></mask><clipPath id="01a65e31cb"><path d="M 0.839844 0.0390625 L 52.679688 0.0390625 L 52.679688 6.519531 L 0.839844 6.519531 Z M 0.839844 0.0390625 " clip-rule="nonzero"/></clipPath><clipPath id="acff852928"><rect x="0" width="53" y="0" height="7"/></clipPath><mask id="a56ed2114c"><g filter="url(#b023cf88de)"><rect x="-37.5" width="450" fill="#000000" y="-37.499999" height="449.999989" fill-opacity="0.2"/></g></mask><clipPath id="c7f0bb0276"><path d="M 0 0.199219 L 50.878906 0.199219 L 50.878906 6.921875 L 0 6.921875 Z M 0 0.199219 " clip-rule="nonzero"/></clipPath><clipPath id="ec67857bb6"><rect x="0" width="51" y="0" height="7"/></clipPath><mask id="6ae34cf957"><g filter="url(#b023cf88de)"><rect x="-37.5" width="450" fill="#000000" y="-37.499999" height="449.999989" fill-opacity="0.1"/></g></mask><clipPath id="cc38d968f3"><path d="M 1 0.398438 L 22 0.398438 L 22 16.238281 L 1 16.238281 Z M 1 0.398438 " clip-rule="nonzero"/></clipPath><clipPath id="2eaecb9a38"><rect x="0" width="23" y="0" height="17"/></clipPath><clipPath id="e31e2b2626"><path d="M 179 214.421875 L 196 214.421875 L 196 236 L 179 236 Z M 179 214.421875 " clip-rule="nonzero"/></clipPath></defs><g clip-path="url(#f11409a552)"><g clip-path="url(#584e935fca)"><path fill="#006e7f" d="M 77.984375 80.808594 L 297.316406 80.808594 L 297.316406 292.691406 L 77.984375 292.691406 Z M 77.984375 80.808594 " fill-opacity="1" fill-rule="nonzero"/></g></g><path fill="#000000" d="M 243.679688 283.210938 L 243.679688 284.800781 L 191.191406 284.800781 C 190.609375 284.800781 190.179688 285.023438 189.84375 285.5 C 189.101562 286.5625 187.796875 286.644531 187.535156 286.652344 L 187.460938 286.652344 C 187.207031 286.644531 185.902344 286.558594 185.15625 285.5 C 184.816406 285.023438 184.390625 284.800781 183.8125 284.800781 L 131.324219 284.800781 L 131.324219 283.195312 L 142.101562 228.699219 L 183.671875 228.699219 C 183.777344 228.699219 183.890625 228.707031 184 228.710938 C 185.25 228.785156 186.5625 229.242188 187.503906 229.941406 C 188.445312 229.242188 189.757812 228.785156 191.003906 228.710938 C 191.117188 228.707031 191.226562 228.699219 191.335938 228.699219 L 232.902344 228.699219 L 243.679688 283.195312 L 243.683594 283.210938 Z M 243.679688 283.210938 " fill-opacity="1" fill-rule="nonzero"/><g clip-path="url(#f334d1bb5c)"><path fill="#000000" d="M 187.464844 287.269531 C 187.011719 287.253906 185.53125 287.113281 184.652344 285.851562 C 184.429688 285.539062 184.191406 285.414062 183.8125 285.414062 L 131.324219 285.414062 C 130.980469 285.414062 130.703125 285.136719 130.703125 284.796875 L 130.703125 283.191406 C 130.703125 283.152344 130.710938 283.109375 130.71875 283.074219 L 141.496094 228.582031 C 141.550781 228.292969 141.804688 228.082031 142.101562 228.082031 L 183.671875 228.082031 C 183.792969 228.082031 183.921875 228.085938 184.046875 228.097656 C 185.253906 228.167969 186.515625 228.570312 187.5 229.195312 C 188.488281 228.570312 189.75 228.167969 190.964844 228.097656 C 191.082031 228.085938 191.210938 228.082031 191.335938 228.082031 L 232.898438 228.082031 C 233.191406 228.082031 233.449219 228.289062 233.503906 228.582031 L 244.28125 283.066406 C 244.289062 283.113281 244.296875 283.167969 244.296875 283.210938 L 244.296875 284.800781 C 244.296875 285.140625 244.019531 285.417969 243.679688 285.417969 L 191.191406 285.417969 C 190.8125 285.417969 190.570312 285.542969 190.351562 285.855469 C 189.46875 287.113281 187.988281 287.253906 187.554688 287.269531 L 187.460938 287.269531 Z M 131.941406 284.179688 L 183.8125 284.179688 C 184.585938 284.179688 185.207031 284.503906 185.660156 285.140625 C 186.230469 285.953125 187.277344 286.027344 187.484375 286.03125 L 187.535156 286.03125 C 187.722656 286.027344 188.773438 285.953125 189.339844 285.144531 C 189.789062 284.503906 190.410156 284.179688 191.191406 284.179688 L 243.0625 284.179688 L 243.0625 283.277344 L 232.390625 229.320312 L 191.335938 229.320312 C 191.242188 229.320312 191.144531 229.324219 191.050781 229.328125 C 189.898438 229.394531 188.710938 229.8125 187.871094 230.4375 C 187.652344 230.601562 187.351562 230.601562 187.132812 230.4375 C 186.289062 229.8125 185.105469 229.398438 183.964844 229.332031 C 183.859375 229.324219 183.761719 229.320312 183.671875 229.320312 L 142.609375 229.320312 L 131.941406 283.253906 Z M 131.941406 284.179688 " fill-opacity="1" fill-rule="nonzero"/></g><path fill="#f24c3d" d="M 191.335938 228.453125 C 189.695312 228.453125 187.5 229.515625 187.5 230.839844 C 187.5 229.515625 185.308594 228.453125 183.667969 228.453125 L 142.101562 228.453125 L 131.324219 282.945312 L 183.832031 282.945312 C 184.878906 282.945312 185.820312 283.382812 186.488281 284.320312 C 186.800781 284.765625 187.5 284.777344 187.5 284.777344 C 187.5 284.777344 188.199219 284.765625 188.515625 284.320312 C 189.179688 283.382812 190.121094 282.945312 191.167969 282.945312 L 243.679688 282.945312 L 232.902344 228.453125 Z M 191.335938 228.453125 " fill-opacity="1" fill-rule="nonzero"/><g clip-path="url(#1d5ab4eb2b)"><path fill="#000000" d="M 187.5 285.398438 C 187.5 285.398438 187.492188 285.398438 187.484375 285.398438 C 187.382812 285.398438 186.460938 285.355469 185.984375 284.679688 C 185.457031 283.9375 184.734375 283.566406 183.832031 283.566406 L 131.324219 283.566406 C 131.136719 283.566406 130.960938 283.484375 130.847656 283.339844 C 130.730469 283.195312 130.679688 283.007812 130.71875 282.828125 L 141.496094 228.335938 C 141.550781 228.046875 141.804688 227.835938 142.101562 227.835938 L 183.667969 227.835938 C 184.9375 227.835938 186.609375 228.410156 187.5 229.382812 C 188.390625 228.410156 190.0625 227.835938 191.335938 227.835938 L 232.902344 227.835938 C 233.195312 227.835938 233.449219 228.042969 233.507812 228.335938 L 244.285156 282.828125 C 244.320312 283.007812 244.273438 283.195312 244.15625 283.339844 C 244.039062 283.484375 243.863281 283.566406 243.679688 283.566406 L 191.167969 283.566406 C 190.265625 283.566406 189.542969 283.9375 189.019531 284.679688 C 188.539062 285.355469 187.617188 285.394531 187.515625 285.398438 C 187.511719 285.398438 187.507812 285.398438 187.5 285.398438 Z M 132.074219 282.328125 L 183.832031 282.328125 C 185.125 282.328125 186.246094 282.910156 186.992188 283.964844 C 187.082031 284.089844 187.378906 284.152344 187.5 284.160156 C 187.660156 284.152344 187.925781 284.078125 188.007812 283.964844 C 188.753906 282.910156 189.878906 282.328125 191.167969 282.328125 L 242.925781 282.328125 L 232.390625 229.070312 L 191.335938 229.070312 C 189.863281 229.070312 188.121094 230.03125 188.121094 230.839844 C 188.121094 231.179688 187.84375 231.457031 187.5 231.457031 C 187.160156 231.457031 186.882812 231.179688 186.882812 230.839844 C 186.882812 230.027344 185.140625 229.070312 183.667969 229.070312 L 142.609375 229.070312 Z M 132.074219 282.328125 " fill-opacity="1" fill-rule="nonzero"/></g><path fill="#efeff9" d="M 187.5 228.390625 L 187.5 281.351562 C 187.5 281.351562 187.042969 281.496094 186.703125 281.316406 C 186.648438 281.292969 186.601562 281.257812 186.5625 281.214844 C 186.539062 281.191406 186.519531 281.167969 186.496094 281.136719 C 185.839844 280.222656 184.917969 279.277344 183.882812 279.277344 L 135.976562 279.277344 L 135.976562 275.300781 L 145.15625 226.050781 L 183.710938 226.050781 C 185.332031 226.050781 187.503906 227.089844 187.503906 228.390625 Z M 187.5 228.390625 " fill-opacity="1" fill-rule="nonzero"/><path fill="#efeff9" d="M 239.027344 275.300781 L 239.027344 279.277344 L 191.125 279.277344 C 190.085938 279.277344 189.164062 280.222656 188.503906 281.136719 C 188.191406 281.574219 187.503906 281.351562 187.503906 281.351562 L 187.503906 228.390625 C 187.503906 227.089844 189.675781 226.050781 191.296875 226.050781 L 229.847656 226.050781 L 239.03125 275.300781 Z M 239.027344 275.300781 " fill-opacity="1" fill-rule="nonzero"/><path fill="#000000" d="M 187.113281 282.027344 C 186.898438 282.027344 186.648438 281.988281 186.414062 281.863281 C 186.316406 281.8125 186.214844 281.742188 186.125 281.652344 C 186.078125 281.605469 186.035156 281.554688 185.992188 281.496094 C 185.242188 280.449219 184.511719 279.894531 183.878906 279.894531 L 135.976562 279.894531 C 135.636719 279.894531 135.359375 279.617188 135.359375 279.277344 L 135.359375 275.296875 C 135.359375 275.261719 135.363281 275.222656 135.367188 275.183594 L 144.550781 225.933594 C 144.605469 225.644531 144.859375 225.429688 145.160156 225.429688 L 178.957031 225.429688 C 179.296875 225.429688 179.574219 225.707031 179.574219 226.050781 C 179.574219 226.390625 179.296875 226.667969 178.957031 226.667969 L 145.671875 226.667969 L 136.597656 275.355469 L 136.597656 278.660156 L 183.878906 278.660156 C 184.898438 278.660156 185.910156 279.320312 186.882812 280.617188 L 186.882812 237.070312 C 186.882812 236.730469 187.160156 236.453125 187.5 236.453125 C 187.84375 236.453125 188.121094 236.730469 188.121094 237.070312 L 188.121094 281.351562 C 188.121094 281.621094 187.945312 281.859375 187.6875 281.941406 C 187.621094 281.960938 187.394531 282.027344 187.113281 282.027344 Z M 187.113281 282.027344 " fill-opacity="1" fill-rule="nonzero"/><path fill="#000000" d="M 202.28125 226.667969 L 197.339844 226.667969 C 197 226.667969 196.722656 226.390625 196.722656 226.050781 C 196.722656 225.707031 197 225.429688 197.339844 225.429688 L 202.28125 225.429688 C 202.625 225.429688 202.902344 225.707031 202.902344 226.050781 C 202.902344 226.390625 202.625 226.667969 202.28125 226.667969 Z M 202.28125 226.667969 " fill-opacity="1" fill-rule="nonzero"/><path fill="#000000" d="M 187.882812 282.027344 C 187.660156 282.027344 187.460938 281.988281 187.3125 281.941406 C 187.054688 281.859375 186.882812 281.621094 186.882812 281.351562 L 186.882812 237.070312 C 186.882812 236.730469 187.160156 236.453125 187.5 236.453125 C 187.84375 236.453125 188.121094 236.730469 188.121094 237.070312 L 188.121094 280.613281 C 189.089844 279.320312 190.101562 278.660156 191.121094 278.660156 L 238.410156 278.660156 L 238.410156 275.355469 L 229.332031 226.667969 L 212.742188 226.667969 C 212.402344 226.667969 212.125 226.390625 212.125 226.050781 C 212.125 225.707031 212.402344 225.429688 212.742188 225.429688 L 229.84375 225.429688 C 230.140625 225.429688 230.398438 225.644531 230.453125 225.933594 L 239.636719 275.1875 C 239.644531 275.222656 239.644531 275.261719 239.644531 275.300781 L 239.644531 279.277344 C 239.644531 279.621094 239.367188 279.898438 239.027344 279.898438 L 191.125 279.898438 C 190.5 279.898438 189.75 280.464844 189.007812 281.496094 C 188.714844 281.90625 188.273438 282.027344 187.882812 282.027344 Z M 187.882812 282.027344 " fill-opacity="1" fill-rule="nonzero"/><path fill="#efeff9" d="M 239.027344 275.300781 L 239.027344 279.277344 L 191.125 279.277344 C 190.085938 279.277344 189.164062 280.222656 188.503906 281.136719 C 188.191406 281.574219 187.503906 281.351562 187.503906 281.351562 L 187.503906 277 C 187.503906 276.058594 188.289062 275.300781 189.257812 275.300781 Z M 239.027344 275.300781 " fill-opacity="1" fill-rule="nonzero"/><path fill="#000000" d="M 187.882812 282.027344 C 187.660156 282.027344 187.460938 281.988281 187.3125 281.941406 C 187.054688 281.859375 186.882812 281.621094 186.882812 281.351562 L 186.882812 277 C 186.882812 275.71875 187.945312 274.683594 189.253906 274.683594 L 239.023438 274.683594 C 239.367188 274.683594 239.644531 274.957031 239.644531 275.300781 L 239.644531 279.277344 C 239.644531 279.621094 239.367188 279.898438 239.023438 279.898438 L 191.125 279.898438 C 190.5 279.898438 189.75 280.464844 189.007812 281.496094 C 188.714844 281.90625 188.273438 282.027344 187.882812 282.027344 Z M 189.257812 275.917969 C 188.632812 275.917969 188.121094 276.402344 188.121094 277 L 188.121094 280.613281 C 189.089844 279.320312 190.101562 278.660156 191.125 278.660156 L 238.410156 278.660156 L 238.410156 275.914062 L 189.257812 275.914062 Z M 189.257812 275.917969 " fill-opacity="1" fill-rule="nonzero"/><path fill="#efeff9" d="M 187.5 277 L 187.5 281.351562 C 187.5 281.351562 187.042969 281.496094 186.703125 281.316406 C 186.648438 281.292969 186.601562 281.257812 186.5625 281.214844 C 186.539062 281.191406 186.519531 281.167969 186.496094 281.136719 C 185.839844 280.222656 184.917969 279.277344 183.882812 279.277344 L 135.976562 279.277344 L 135.976562 275.300781 L 185.746094 275.300781 C 186.714844 275.300781 187.503906 276.058594 187.503906 277 Z M 187.5 277 " fill-opacity="1" fill-rule="nonzero"/><path fill="#000000" d="M 187.113281 282.027344 C 186.898438 282.027344 186.648438 281.988281 186.414062 281.863281 C 186.316406 281.8125 186.214844 281.742188 186.125 281.652344 C 186.078125 281.605469 186.035156 281.554688 185.992188 281.496094 C 185.242188 280.449219 184.511719 279.894531 183.878906 279.894531 L 135.976562 279.894531 C 135.636719 279.894531 135.359375 279.617188 135.359375 279.277344 L 135.359375 275.296875 C 135.359375 274.957031 135.636719 274.679688 135.976562 274.679688 L 185.746094 274.679688 C 187.054688 274.679688 188.121094 275.71875 188.121094 276.996094 L 188.121094 281.347656 C 188.121094 281.617188 187.945312 281.855469 187.691406 281.9375 C 187.625 281.960938 187.398438 282.023438 187.113281 282.023438 Z M 187.503906 281.351562 Z M 136.597656 278.660156 L 183.878906 278.660156 C 184.898438 278.660156 185.910156 279.320312 186.882812 280.621094 L 186.882812 277 C 186.882812 276.402344 186.375 275.917969 185.746094 275.917969 L 136.597656 275.917969 Z M 136.597656 278.660156 " fill-opacity="1" fill-rule="nonzero"/><g mask="url(#29bd24ad34)"><g transform="matrix(1, 0, 0, 1, 187, 275)"><g clip-path="url(#ccf9febbf1)"><g clip-path="url(#5dcd705a54)"><path fill="#000000" d="M 52.027344 0.300781 L 52.027344 4.277344 L 4.125 4.277344 C 3.085938 4.277344 2.164062 5.222656 1.503906 6.136719 C 1.191406 6.574219 0.503906 6.351562 0.503906 6.351562 L 0.503906 2 C 0.503906 1.058594 1.289062 0.300781 2.257812 0.300781 Z M 52.027344 0.300781 " fill-opacity="1" fill-rule="nonzero"/></g></g></g></g><g mask="url(#46e355c123)"><g transform="matrix(1, 0, 0, 1, 135, 275)"><g clip-path="url(#acff852928)"><g clip-path="url(#01a65e31cb)"><path fill="#000000" d="M 52.5 2 L 52.5 6.351562 C 52.5 6.351562 52.042969 6.496094 51.703125 6.316406 C 51.648438 6.292969 51.601562 6.257812 51.5625 6.214844 C 51.539062 6.191406 51.519531 6.167969 51.496094 6.136719 C 50.839844 5.222656 49.917969 4.277344 48.882812 4.277344 L 0.976562 4.277344 L 0.976562 0.300781 L 50.746094 0.300781 C 51.714844 0.300781 52.503906 1.058594 52.503906 2 Z M 52.5 2 " fill-opacity="1" fill-rule="nonzero"/></g></g></g></g><g mask="url(#a56ed2114c)"><g transform="matrix(1, 0, 0, 1, 162, 247)"><g clip-path="url(#ec67857bb6)"><g clip-path="url(#c7f0bb0276)"><path fill="#000000" d="M 50.742188 3.609375 C 50.742188 3.710938 50.703125 3.8125 50.621094 3.914062 C 50.539062 4.015625 50.417969 4.117188 50.257812 4.21875 C 50.097656 4.316406 49.898438 4.417969 49.65625 4.515625 C 49.417969 4.613281 49.136719 4.707031 48.820312 4.800781 C 48.503906 4.898438 48.152344 4.988281 47.761719 5.078125 C 47.375 5.167969 46.949219 5.257812 46.488281 5.339844 C 46.03125 5.425781 45.539062 5.507812 45.015625 5.585938 C 44.488281 5.667969 43.933594 5.742188 43.351562 5.8125 C 42.765625 5.886719 42.152344 5.953125 41.515625 6.019531 C 40.875 6.085938 40.210938 6.144531 39.523438 6.203125 C 38.835938 6.257812 38.128906 6.3125 37.398438 6.359375 C 36.671875 6.40625 35.925781 6.449219 35.160156 6.492188 C 34.398438 6.53125 33.621094 6.5625 32.828125 6.59375 C 32.039062 6.621094 31.238281 6.648438 30.425781 6.667969 C 29.613281 6.6875 28.796875 6.703125 27.976562 6.710938 C 27.152344 6.722656 26.328125 6.726562 25.5 6.726562 C 24.675781 6.726562 23.847656 6.722656 23.027344 6.710938 C 22.203125 6.703125 21.386719 6.6875 20.578125 6.667969 C 19.765625 6.648438 18.964844 6.621094 18.171875 6.59375 C 17.382812 6.5625 16.605469 6.53125 15.839844 6.492188 C 15.078125 6.449219 14.332031 6.40625 13.601562 6.359375 C 12.871094 6.3125 12.164062 6.257812 11.476562 6.203125 C 10.789062 6.144531 10.125 6.085938 9.488281 6.019531 C 8.847656 5.953125 8.238281 5.886719 7.652344 5.8125 C 7.066406 5.742188 6.511719 5.667969 5.988281 5.585938 C 5.464844 5.507812 4.972656 5.425781 4.511719 5.339844 C 4.054688 5.257812 3.628906 5.167969 3.238281 5.078125 C 2.847656 4.988281 2.496094 4.898438 2.179688 4.800781 C 1.863281 4.707031 1.585938 4.613281 1.34375 4.515625 C 1.105469 4.417969 0.90625 4.316406 0.742188 4.21875 C 0.582031 4.117188 0.460938 4.015625 0.378906 3.914062 C 0.300781 3.8125 0.257812 3.710938 0.257812 3.609375 C 0.257812 3.507812 0.300781 3.40625 0.378906 3.304688 C 0.460938 3.203125 0.582031 3.101562 0.742188 3 C 0.90625 2.902344 1.105469 2.800781 1.34375 2.703125 C 1.585938 2.605469 1.863281 2.511719 2.179688 2.414062 C 2.496094 2.320312 2.847656 2.230469 3.238281 2.140625 C 3.628906 2.050781 4.054688 1.960938 4.511719 1.875 C 4.972656 1.792969 5.464844 1.710938 5.988281 1.628906 C 6.511719 1.550781 7.066406 1.476562 7.652344 1.402344 C 8.238281 1.332031 8.847656 1.261719 9.488281 1.199219 C 10.125 1.132812 10.789062 1.074219 11.476562 1.015625 C 12.164062 0.960938 12.871094 0.90625 13.601562 0.859375 C 14.332031 0.8125 15.078125 0.765625 15.839844 0.726562 C 16.605469 0.6875 17.382812 0.65625 18.171875 0.625 C 18.964844 0.59375 19.765625 0.570312 20.578125 0.550781 C 21.386719 0.53125 22.203125 0.515625 23.027344 0.503906 C 23.847656 0.496094 24.675781 0.492188 25.5 0.492188 C 26.328125 0.492188 27.152344 0.496094 27.976562 0.503906 C 28.796875 0.515625 29.613281 0.53125 30.425781 0.550781 C 31.238281 0.570312 32.039062 0.59375 32.828125 0.625 C 33.621094 0.65625 34.398438 0.6875 35.160156 0.726562 C 35.925781 0.765625 36.671875 0.8125 37.398438 0.859375 C 38.128906 0.90625 38.835938 0.960938 39.523438 1.015625 C 40.210938 1.074219 40.875 1.132812 41.515625 1.199219 C 42.152344 1.261719 42.765625 1.332031 43.351562 1.402344 C 43.933594 1.476562 44.488281 1.550781 45.015625 1.628906 C 45.539062 1.710938 46.03125 1.792969 46.488281 1.875 C 46.949219 1.960938 47.375 2.050781 47.761719 2.140625 C 48.152344 2.230469 48.503906 2.320312 48.820312 2.414062 C 49.136719 2.511719 49.417969 2.605469 49.65625 2.703125 C 49.898438 2.800781 50.097656 2.902344 50.257812 3 C 50.417969 3.101562 50.539062 3.203125 50.621094 3.304688 C 50.703125 3.40625 50.742188 3.507812 50.742188 3.609375 Z M 50.742188 3.609375 " fill-opacity="1" fill-rule="nonzero"/></g></g></g></g><path fill="#000000" d="M 183.273438 268.296875 L 142.148438 268.296875 C 141.804688 268.296875 141.53125 268.019531 141.53125 267.679688 C 141.53125 267.335938 141.804688 267.058594 142.148438 267.058594 L 183.273438 267.058594 C 183.617188 267.058594 183.894531 267.335938 183.894531 267.679688 C 183.894531 268.019531 183.617188 268.296875 183.273438 268.296875 Z M 183.273438 268.296875 " fill-opacity="1" fill-rule="nonzero"/><path fill="#000000" d="M 183.273438 263.351562 L 142.890625 263.351562 C 142.546875 263.351562 142.269531 263.074219 142.269531 262.730469 C 142.269531 262.390625 142.546875 262.113281 142.890625 262.113281 L 183.273438 262.113281 C 183.617188 262.113281 183.894531 262.390625 183.894531 262.730469 C 183.894531 263.074219 183.617188 263.351562 183.273438 263.351562 Z M 183.273438 263.351562 " fill-opacity="1" fill-rule="nonzero"/><path fill="#000000" d="M 183.273438 258.402344 L 143.632812 258.402344 C 143.289062 258.402344 143.011719 258.128906 143.011719 257.785156 C 143.011719 257.445312 143.289062 257.167969 143.632812 257.167969 L 183.273438 257.167969 C 183.617188 257.167969 183.894531 257.445312 183.894531 257.785156 C 183.894531 258.128906 183.617188 258.402344 183.273438 258.402344 Z M 183.273438 258.402344 " fill-opacity="1" fill-rule="nonzero"/><path fill="#000000" d="M 207.359375 268.296875 L 191.707031 268.296875 C 191.363281 268.296875 191.085938 268.019531 191.085938 267.679688 C 191.085938 267.335938 191.363281 267.058594 191.707031 267.058594 L 207.359375 267.058594 C 207.699219 267.058594 207.976562 267.335938 207.976562 267.679688 C 207.976562 268.019531 207.699219 268.296875 207.359375 268.296875 Z M 207.359375 268.296875 " fill-opacity="1" fill-rule="nonzero"/><path fill="#000000" d="M 207.113281 263.351562 L 191.707031 263.351562 C 191.363281 263.351562 191.085938 263.074219 191.085938 262.730469 C 191.085938 262.390625 191.363281 262.113281 191.707031 262.113281 L 207.113281 262.113281 C 207.453125 262.113281 207.730469 262.390625 207.730469 262.730469 C 207.730469 263.074219 207.453125 263.351562 207.113281 263.351562 Z M 207.113281 263.351562 " fill-opacity="1" fill-rule="nonzero"/><path fill="#000000" d="M 206.863281 258.402344 L 191.707031 258.402344 C 191.363281 258.402344 191.085938 258.128906 191.085938 257.785156 C 191.085938 257.445312 191.363281 257.167969 191.707031 257.167969 L 206.863281 257.167969 C 207.207031 257.167969 207.484375 257.445312 207.484375 257.785156 C 207.484375 258.128906 207.207031 258.402344 206.863281 258.402344 Z M 206.863281 258.402344 " fill-opacity="1" fill-rule="nonzero"/><g mask="url(#6ae34cf957)"><g transform="matrix(1, 0, 0, 1, 210, 254)"><g clip-path="url(#2eaecb9a38)"><g clip-path="url(#cc38d968f3)"><path fill="#000000" d="M 1.527344 16.011719 L 21.757812 16.011719 L 19.285156 0.703125 L 1.03125 0.703125 Z M 1.527344 16.011719 " fill-opacity="1" fill-rule="nonzero"/></g></g></g></g><path fill="#000000" d="M 231.757812 270.632812 L 211.527344 270.632812 C 211.191406 270.632812 210.917969 270.367188 210.910156 270.03125 L 210.414062 254.722656 C 210.410156 254.554688 210.472656 254.394531 210.585938 254.273438 C 210.703125 254.152344 210.863281 254.085938 211.03125 254.085938 L 229.285156 254.085938 C 229.589844 254.085938 229.847656 254.304688 229.898438 254.605469 L 232.371094 269.914062 C 232.398438 270.09375 232.347656 270.273438 232.230469 270.414062 C 232.113281 270.550781 231.941406 270.632812 231.761719 270.632812 Z M 212.128906 269.394531 L 231.035156 269.394531 L 228.761719 255.324219 L 211.675781 255.324219 Z M 212.128906 269.394531 " fill-opacity="1" fill-rule="nonzero"/><path fill="#f29727" d="M 173.667969 243.640625 C 173.722656 244.242188 173.609375 244.707031 173.324219 245.042969 C 173.042969 245.382812 172.695312 245.578125 172.289062 245.636719 C 171.882812 245.699219 171.464844 245.609375 171.039062 245.367188 C 170.613281 245.128906 170.277344 244.742188 170.027344 244.210938 C 169.402344 244.527344 168.808594 244.722656 168.257812 244.796875 C 167.707031 244.871094 167.09375 244.855469 166.417969 244.753906 C 165.40625 244.613281 164.527344 244.339844 163.785156 243.933594 C 163.046875 243.527344 162.453125 243.007812 162.007812 242.378906 C 161.558594 241.75 161.277344 241.011719 161.164062 240.167969 C 161.050781 239.324219 161.128906 238.386719 161.394531 237.355469 C 161.511719 236.929688 161.664062 236.519531 161.84375 236.125 C 162.027344 235.730469 162.222656 235.347656 162.433594 234.976562 C 162.667969 234.570312 162.972656 234.148438 163.347656 233.707031 C 163.71875 233.265625 164.089844 232.890625 164.445312 232.589844 C 165.746094 231.480469 167.246094 230.78125 168.941406 230.496094 C 169.238281 230.445312 169.628906 230.425781 170.117188 230.429688 C 170.601562 230.4375 171.085938 230.488281 171.570312 230.585938 C 172.050781 230.679688 172.503906 230.828125 172.925781 231.023438 C 173.347656 231.222656 173.640625 231.488281 173.804688 231.824219 C 173.941406 232.09375 174.03125 232.324219 174.078125 232.515625 C 174.125 232.703125 174.132812 232.902344 174.109375 233.101562 C 174.085938 233.296875 174.046875 233.511719 173.996094 233.734375 C 173.945312 233.960938 173.890625 234.238281 173.828125 234.578125 C 173.730469 235.128906 173.628906 235.664062 173.527344 236.1875 C 173.421875 236.707031 173.332031 237.234375 173.257812 237.773438 L 173.132812 238.464844 C 173.082031 238.753906 173.035156 239.054688 173 239.375 C 172.964844 239.691406 172.933594 240 172.914062 240.289062 C 172.890625 240.582031 172.894531 240.820312 172.917969 241.007812 L 173.667969 243.644531 Z M 167.636719 241.183594 C 167.878906 241.085938 168.152344 240.976562 168.457031 240.859375 C 168.765625 240.738281 169.042969 240.589844 169.300781 240.414062 C 169.3125 239.335938 169.394531 238.273438 169.554688 237.222656 C 169.710938 236.171875 169.90625 235.117188 170.136719 234.058594 C 169.21875 234.058594 168.351562 234.300781 167.535156 234.785156 C 166.714844 235.269531 166.09375 235.898438 165.667969 236.679688 C 165.492188 236.992188 165.332031 237.320312 165.1875 237.660156 C 165.042969 238 164.953125 238.339844 164.914062 238.679688 C 164.851562 239.136719 164.898438 239.539062 165.0625 239.882812 C 165.222656 240.226562 165.445312 240.503906 165.722656 240.71875 C 166 240.929688 166.308594 241.074219 166.652344 241.15625 C 166.992188 241.238281 167.320312 241.246094 167.636719 241.183594 Z M 167.636719 241.183594 " fill-opacity="1" fill-rule="nonzero"/><path fill="#000000" d="M 172.046875 246.269531 C 171.613281 246.269531 171.175781 246.148438 170.738281 245.90625 C 170.359375 245.691406 170.035156 245.390625 169.773438 245.003906 C 169.277344 245.210938 168.796875 245.34375 168.34375 245.40625 C 167.734375 245.488281 167.054688 245.472656 166.328125 245.363281 C 165.25 245.214844 164.296875 244.914062 163.492188 244.472656 C 162.671875 244.019531 162.003906 243.433594 161.503906 242.734375 C 161 242.023438 160.679688 241.1875 160.558594 240.246094 C 160.433594 239.324219 160.515625 238.300781 160.800781 237.195312 C 160.929688 236.730469 161.089844 236.28125 161.285156 235.855469 C 161.472656 235.453125 161.675781 235.054688 161.894531 234.667969 C 162.152344 234.226562 162.480469 233.769531 162.875 233.300781 C 163.269531 232.835938 163.664062 232.433594 164.050781 232.109375 C 165.425781 230.9375 167.039062 230.183594 168.84375 229.878906 C 169.179688 229.824219 169.597656 229.800781 170.125 229.804688 C 170.648438 229.8125 171.175781 229.867188 171.691406 229.972656 C 172.222656 230.078125 172.722656 230.242188 173.191406 230.457031 C 173.742188 230.714844 174.132812 231.082031 174.363281 231.542969 C 174.515625 231.851562 174.621094 232.117188 174.679688 232.359375 C 174.746094 232.621094 174.761719 232.898438 174.726562 233.167969 C 174.699219 233.390625 174.65625 233.621094 174.601562 233.863281 C 174.554688 234.074219 174.5 234.347656 174.441406 234.675781 C 174.34375 235.230469 174.238281 235.769531 174.132812 236.296875 C 174.03125 236.800781 173.945312 237.320312 173.871094 237.84375 L 173.742188 238.5625 C 173.695312 238.835938 173.652344 239.128906 173.617188 239.429688 C 173.582031 239.734375 173.554688 240.035156 173.53125 240.320312 C 173.511719 240.59375 173.519531 240.765625 173.53125 240.871094 L 174.269531 243.464844 C 174.277344 243.5 174.285156 243.539062 174.289062 243.574219 C 174.359375 244.34375 174.195312 244.96875 173.800781 245.433594 C 173.417969 245.886719 172.941406 246.15625 172.378906 246.238281 C 172.269531 246.253906 172.15625 246.265625 172.046875 246.265625 Z M 170.027344 243.589844 C 170.097656 243.589844 170.164062 243.601562 170.230469 243.621094 C 170.390625 243.675781 170.519531 243.792969 170.589844 243.945312 C 170.785156 244.363281 171.03125 244.648438 171.347656 244.828125 C 171.652344 244.996094 171.933594 245.066406 172.207031 245.023438 C 172.460938 244.984375 172.671875 244.863281 172.859375 244.640625 C 173.023438 244.449219 173.09375 244.148438 173.0625 243.75 L 172.332031 241.167969 C 172.324219 241.140625 172.320312 241.117188 172.3125 241.089844 C 172.28125 240.855469 172.273438 240.574219 172.300781 240.238281 C 172.324219 239.929688 172.355469 239.613281 172.394531 239.292969 C 172.429688 238.972656 172.476562 238.652344 172.53125 238.351562 L 172.65625 237.65625 C 172.730469 237.128906 172.820312 236.585938 172.925781 236.058594 C 173.027344 235.539062 173.128906 235.007812 173.230469 234.460938 C 173.289062 234.109375 173.347656 233.824219 173.398438 233.59375 C 173.445312 233.390625 173.480469 233.195312 173.503906 233.011719 C 173.519531 232.890625 173.511719 232.769531 173.484375 232.652344 C 173.460938 232.554688 173.398438 232.371094 173.257812 232.09375 C 173.15625 231.878906 172.960938 231.714844 172.671875 231.578125 C 172.296875 231.402344 171.886719 231.265625 171.457031 231.179688 C 171.015625 231.089844 170.5625 231.042969 170.117188 231.039062 C 169.667969 231.035156 169.3125 231.050781 169.058594 231.097656 C 167.476562 231.363281 166.066406 232.019531 164.859375 233.050781 C 164.523438 233.332031 164.179688 233.683594 163.828125 234.097656 C 163.480469 234.507812 163.195312 234.90625 162.976562 235.277344 C 162.78125 235.628906 162.589844 236 162.417969 236.375 C 162.25 236.738281 162.113281 237.117188 162.003906 237.511719 C 161.761719 238.453125 161.691406 239.320312 161.792969 240.078125 C 161.890625 240.816406 162.136719 241.472656 162.523438 242.015625 C 162.914062 242.5625 163.441406 243.027344 164.097656 243.386719 C 164.769531 243.757812 165.582031 244.007812 166.515625 244.140625 C 167.132812 244.230469 167.695312 244.246094 168.1875 244.179688 C 168.667969 244.113281 169.199219 243.9375 169.757812 243.65625 C 169.847656 243.609375 169.941406 243.589844 170.035156 243.589844 Z M 167.210938 241.84375 C 166.980469 241.84375 166.746094 241.816406 166.507812 241.761719 C 166.085938 241.660156 165.695312 241.472656 165.351562 241.210938 C 164.992188 240.9375 164.710938 240.578125 164.507812 240.144531 C 164.292969 239.695312 164.226562 239.171875 164.300781 238.597656 C 164.347656 238.214844 164.453125 237.816406 164.617188 237.421875 C 164.769531 237.0625 164.9375 236.710938 165.132812 236.375 C 165.601562 235.511719 166.308594 234.792969 167.21875 234.253906 C 168.128906 233.714844 169.109375 233.445312 170.128906 233.445312 L 170.136719 233.445312 C 170.324219 233.445312 170.5 233.527344 170.621094 233.671875 C 170.734375 233.820312 170.78125 234.011719 170.742188 234.191406 C 170.515625 235.226562 170.324219 236.277344 170.167969 237.3125 C 170.015625 238.332031 169.933594 239.375 169.921875 240.417969 C 169.921875 240.617188 169.820312 240.804688 169.65625 240.917969 C 169.363281 241.125 169.035156 241.296875 168.683594 241.433594 C 168.382812 241.550781 168.113281 241.660156 167.871094 241.753906 C 167.835938 241.769531 167.800781 241.78125 167.761719 241.789062 C 167.582031 241.824219 167.394531 241.84375 167.207031 241.84375 Z M 167.640625 241.183594 Z M 169.359375 234.746094 C 168.839844 234.835938 168.339844 235.027344 167.847656 235.316406 C 167.117188 235.746094 166.582031 236.289062 166.210938 236.972656 C 166.039062 237.277344 165.886719 237.582031 165.757812 237.898438 C 165.636719 238.183594 165.558594 238.472656 165.527344 238.75 C 165.480469 239.097656 165.511719 239.382812 165.625 239.617188 C 165.746094 239.875 165.902344 240.070312 166.097656 240.226562 C 166.308594 240.386719 166.535156 240.496094 166.792969 240.554688 C 167.027344 240.613281 167.25 240.621094 167.460938 240.585938 C 167.691406 240.492188 167.953125 240.390625 168.234375 240.277344 C 168.394531 240.21875 168.546875 240.148438 168.6875 240.066406 C 168.710938 239.078125 168.796875 238.089844 168.941406 237.128906 C 169.058594 236.335938 169.199219 235.539062 169.359375 234.742188 Z M 169.359375 234.746094 " fill-opacity="1" fill-rule="nonzero"/><path fill="#22a699" d="M 189.453125 234.332031 C 188.890625 234.480469 188.339844 234.566406 187.800781 234.589844 C 187.261719 234.609375 186.710938 234.5625 186.148438 234.445312 C 185.925781 234.640625 185.691406 234.765625 185.449219 234.824219 C 185.203125 234.878906 184.972656 234.894531 184.75 234.859375 C 184.527344 234.828125 184.328125 234.777344 184.15625 234.703125 C 183.988281 234.628906 183.867188 234.570312 183.792969 234.527344 C 183.503906 234.265625 183.296875 233.941406 183.167969 233.558594 C 183.039062 233.179688 183.082031 232.777344 183.292969 232.359375 L 179.820312 217.3125 C 179.71875 216.863281 179.789062 216.453125 180.03125 216.078125 C 180.273438 215.703125 180.589844 215.429688 180.980469 215.257812 C 181.371094 215.082031 181.785156 215.0625 182.214844 215.1875 C 182.644531 215.3125 182.992188 215.644531 183.257812 216.179688 C 183.417969 216.511719 183.5625 216.84375 183.691406 217.175781 C 183.816406 217.507812 183.9375 217.894531 184.050781 218.339844 C 184.164062 218.789062 184.285156 219.304688 184.410156 219.890625 C 184.535156 220.480469 184.675781 221.207031 184.835938 222.074219 C 184.988281 221.9375 185.148438 221.804688 185.3125 221.671875 C 185.476562 221.539062 185.644531 221.40625 185.820312 221.261719 C 186.304688 220.882812 186.855469 220.589844 187.46875 220.386719 C 188.078125 220.1875 188.699219 220.078125 189.324219 220.070312 C 189.945312 220.058594 190.558594 220.164062 191.152344 220.386719 C 191.75 220.609375 192.277344 220.957031 192.734375 221.425781 C 193.382812 222.101562 193.910156 222.941406 194.316406 223.945312 C 194.722656 224.953125 194.960938 225.984375 195.03125 227.046875 C 195.101562 228.113281 194.980469 229.144531 194.664062 230.140625 C 194.351562 231.136719 193.773438 231.960938 192.9375 232.605469 C 192.414062 233.011719 191.863281 233.363281 191.28125 233.648438 C 190.699219 233.9375 190.089844 234.164062 189.453125 234.332031 Z M 185.878906 227.261719 L 186.691406 230.773438 C 186.738281 230.804688 186.785156 230.828125 186.824219 230.835938 C 186.871094 230.847656 186.914062 230.871094 186.964844 230.898438 C 188.855469 231.078125 190.285156 230.328125 191.253906 228.644531 C 191.367188 227.796875 191.339844 227.027344 191.171875 226.339844 C 191 225.648438 190.695312 224.929688 190.257812 224.191406 C 190.105469 223.976562 189.910156 223.863281 189.667969 223.847656 C 189.429688 223.832031 189.210938 223.796875 189.011719 223.738281 C 188.6875 223.75 188.363281 223.886719 188.042969 224.144531 C 187.722656 224.40625 187.425781 224.703125 187.15625 225.042969 C 186.882812 225.382812 186.648438 225.738281 186.445312 226.117188 C 186.246094 226.492188 186.089844 226.804688 185.984375 227.054688 L 185.875 227.265625 Z M 185.878906 227.261719 " fill-opacity="1" fill-rule="nonzero"/><g clip-path="url(#e31e2b2626)"><path fill="#000000" d="M 184.988281 235.496094 C 184.878906 235.496094 184.769531 235.488281 184.664062 235.472656 C 184.386719 235.433594 184.136719 235.367188 183.914062 235.273438 C 183.710938 235.1875 183.570312 235.117188 183.464844 235.050781 C 183.433594 235.03125 183.402344 235.007812 183.375 234.984375 C 183.011719 234.652344 182.746094 234.238281 182.585938 233.761719 C 182.425781 233.285156 182.445312 232.796875 182.644531 232.296875 L 179.222656 217.453125 C 179.082031 216.835938 179.175781 216.261719 179.511719 215.742188 C 179.820312 215.269531 180.234375 214.914062 180.734375 214.691406 C 181.261719 214.460938 181.820312 214.429688 182.390625 214.597656 C 182.988281 214.773438 183.46875 215.214844 183.816406 215.90625 C 183.988281 216.261719 184.136719 216.613281 184.269531 216.953125 C 184.40625 217.308594 184.535156 217.722656 184.652344 218.191406 C 184.765625 218.640625 184.890625 219.167969 185.015625 219.765625 C 185.085938 220.105469 185.167969 220.496094 185.25 220.933594 C 185.308594 220.886719 185.367188 220.835938 185.425781 220.785156 C 185.984375 220.355469 186.597656 220.027344 187.273438 219.800781 C 187.941406 219.582031 188.625 219.464844 189.3125 219.449219 C 190.011719 219.441406 190.699219 219.558594 191.367188 219.808594 C 192.050781 220.0625 192.65625 220.460938 193.175781 220.996094 C 193.878906 221.722656 194.457031 222.636719 194.890625 223.710938 C 195.320312 224.777344 195.574219 225.882812 195.648438 227.007812 C 195.722656 228.140625 195.59375 229.257812 195.257812 230.324219 C 194.90625 231.441406 194.253906 232.371094 193.316406 233.09375 C 192.761719 233.523438 192.171875 233.894531 191.558594 234.199219 C 190.941406 234.503906 190.285156 234.75 189.609375 234.925781 C 189.007812 235.089844 188.40625 235.183594 187.824219 235.203125 C 187.328125 235.222656 186.820312 235.191406 186.304688 235.101562 C 186.078125 235.257812 185.839844 235.363281 185.589844 235.425781 C 185.386719 235.472656 185.1875 235.492188 184.992188 235.492188 Z M 184.164062 234.027344 C 184.203125 234.050781 184.277344 234.085938 184.398438 234.136719 C 184.519531 234.1875 184.667969 234.226562 184.832031 234.25 C 184.980469 234.269531 185.136719 234.261719 185.308594 234.222656 C 185.453125 234.191406 185.59375 234.113281 185.738281 233.984375 C 185.886719 233.855469 186.082031 233.800781 186.273438 233.84375 C 186.78125 233.949219 187.289062 233.992188 187.777344 233.972656 C 188.265625 233.953125 188.777344 233.875 189.292969 233.734375 C 189.890625 233.578125 190.464844 233.363281 191.007812 233.09375 C 191.550781 232.828125 192.070312 232.5 192.558594 232.117188 C 193.304688 231.542969 193.800781 230.835938 194.078125 229.953125 C 194.367188 229.035156 194.480469 228.070312 194.414062 227.089844 C 194.347656 226.097656 194.125 225.121094 193.742188 224.175781 C 193.367188 223.25 192.878906 222.46875 192.289062 221.855469 C 191.898438 221.460938 191.441406 221.15625 190.9375 220.96875 C 190.414062 220.777344 189.878906 220.683594 189.332031 220.691406 C 188.773438 220.699219 188.210938 220.796875 187.660156 220.976562 C 187.121094 221.15625 186.628906 221.417969 186.199219 221.75 C 186.035156 221.882812 185.863281 222.027344 185.695312 222.15625 C 185.542969 222.277344 185.394531 222.402344 185.25 222.535156 C 185.082031 222.6875 184.847656 222.734375 184.632812 222.660156 C 184.421875 222.589844 184.265625 222.410156 184.226562 222.1875 C 184.070312 221.328125 183.925781 220.601562 183.804688 220.019531 C 183.679688 219.441406 183.5625 218.925781 183.453125 218.492188 C 183.347656 218.070312 183.234375 217.703125 183.113281 217.394531 C 182.992188 217.085938 182.855469 216.761719 182.703125 216.445312 C 182.519531 216.078125 182.300781 215.855469 182.039062 215.777344 C 181.753906 215.695312 181.488281 215.707031 181.230469 215.820312 C 180.949219 215.945312 180.726562 216.136719 180.550781 216.410156 C 180.398438 216.644531 180.359375 216.886719 180.421875 217.171875 L 183.894531 232.21875 C 183.925781 232.359375 183.90625 232.507812 183.839844 232.636719 C 183.660156 232.992188 183.703125 233.222656 183.75 233.359375 C 183.839844 233.621094 183.972656 233.84375 184.160156 234.023438 Z M 187.507812 231.542969 C 187.3125 231.542969 187.109375 231.53125 186.902344 231.511719 C 186.8125 231.503906 186.722656 231.476562 186.644531 231.429688 C 186.550781 231.402344 186.449219 231.359375 186.355469 231.296875 C 186.21875 231.210938 186.117188 231.070312 186.082031 230.914062 L 185.273438 227.398438 C 185.242188 227.257812 185.257812 227.109375 185.324219 226.980469 L 185.421875 226.789062 C 185.535156 226.523438 185.695312 226.195312 185.898438 225.820312 C 186.117188 225.410156 186.375 225.019531 186.667969 224.652344 C 186.96875 224.277344 187.296875 223.945312 187.648438 223.65625 C 188.074219 223.3125 188.523438 223.132812 188.980469 223.113281 C 189.050781 223.113281 189.117188 223.117188 189.179688 223.136719 C 189.332031 223.183594 189.511719 223.210938 189.707031 223.226562 C 190.132812 223.253906 190.496094 223.460938 190.753906 223.824219 C 190.765625 223.839844 190.773438 223.851562 190.785156 223.871094 C 191.253906 224.660156 191.582031 225.441406 191.765625 226.183594 C 191.953125 226.945312 191.984375 227.800781 191.863281 228.722656 C 191.855469 228.800781 191.828125 228.882812 191.785156 228.949219 C 190.796875 230.671875 189.359375 231.539062 187.507812 231.539062 Z M 186.675781 231.433594 Z M 187.210938 230.296875 C 188.71875 230.382812 189.847656 229.777344 190.652344 228.4375 C 190.738281 227.71875 190.707031 227.0625 190.566406 226.480469 C 190.410156 225.859375 190.136719 225.203125 189.738281 224.527344 C 189.691406 224.460938 189.65625 224.460938 189.621094 224.457031 C 189.386719 224.4375 189.164062 224.40625 188.957031 224.355469 C 188.789062 224.382812 188.613281 224.46875 188.429688 224.621094 C 188.144531 224.851562 187.875 225.121094 187.636719 225.421875 C 187.390625 225.734375 187.171875 226.0625 186.988281 226.402344 C 186.796875 226.757812 186.648438 227.054688 186.550781 227.292969 C 186.546875 227.304688 186.542969 227.316406 186.535156 227.332031 L 186.527344 227.339844 Z M 186.960938 230.234375 C 186.960938 230.234375 186.972656 230.234375 186.976562 230.234375 C 186.972656 230.234375 186.96875 230.234375 186.960938 230.234375 Z M 186.960938 230.234375 " fill-opacity="1" fill-rule="nonzero"/></g><path fill="#f29727" d="M 208.0625 237.476562 C 208.621094 237.269531 209.117188 237.234375 209.546875 237.367188 C 209.980469 237.503906 210.308594 237.734375 210.535156 238.058594 C 210.761719 238.386719 210.839844 238.769531 210.773438 239.21875 C 210.707031 239.664062 210.457031 240.097656 210.019531 240.515625 C 209.730469 240.800781 209.355469 241.035156 208.894531 241.222656 C 208.433594 241.410156 208 241.542969 207.59375 241.621094 C 206.648438 241.824219 205.738281 241.8125 204.867188 241.582031 C 203.992188 241.351562 203.222656 240.960938 202.554688 240.40625 C 201.882812 239.851562 201.351562 239.167969 200.953125 238.351562 C 200.554688 237.539062 200.359375 236.652344 200.363281 235.6875 C 200.351562 233.84375 200.796875 232.164062 201.699219 230.660156 C 202.039062 230.117188 202.421875 229.609375 202.847656 229.125 C 203.269531 228.644531 203.742188 228.222656 204.273438 227.867188 C 204.800781 227.511719 205.367188 227.21875 205.96875 226.988281 C 206.574219 226.761719 207.851562 226.675781 207.851562 226.675781 C 207.851562 226.675781 208.847656 226.8125 209.492188 227.046875 C 210.140625 227.277344 210.753906 227.589844 211.335938 227.984375 C 211.917969 228.375 212.402344 228.828125 212.792969 229.34375 C 213.183594 229.859375 213.347656 230.40625 213.28125 230.988281 C 213.253906 231.308594 213.152344 231.589844 212.976562 231.828125 C 212.804688 232.070312 212.589844 232.25 212.335938 232.378906 C 212.082031 232.507812 211.804688 232.578125 211.507812 232.585938 C 211.207031 232.59375 210.921875 232.527344 210.644531 232.382812 C 210.3125 232.210938 210.0625 232.015625 209.890625 231.804688 C 209.722656 231.59375 209.5 231.3125 209.226562 230.96875 C 209.078125 230.894531 208.945312 230.800781 208.828125 230.679688 C 208.710938 230.5625 208.570312 230.5 208.410156 230.484375 L 207.597656 230.398438 C 207.445312 230.449219 207.300781 230.488281 207.175781 230.523438 C 207.042969 230.558594 206.914062 230.589844 206.785156 230.621094 C 205.972656 231.144531 205.324219 231.777344 204.835938 232.519531 C 204.34375 233.265625 204.074219 234.125 204.03125 235.097656 C 203.996094 235.726562 204.082031 236.269531 204.277344 236.71875 C 204.476562 237.171875 204.753906 237.515625 205.101562 237.746094 C 205.449219 237.972656 205.867188 238.082031 206.355469 238.0625 C 206.839844 238.046875 207.351562 237.878906 207.894531 237.566406 L 208.066406 237.480469 Z M 208.0625 237.476562 " fill-opacity="1" fill-rule="nonzero"/><path fill="#000000" d="M 206.285156 242.382812 C 205.75 242.382812 205.222656 242.316406 204.707031 242.179688 C 203.75 241.925781 202.894531 241.488281 202.160156 240.878906 C 201.425781 240.269531 200.832031 239.511719 200.398438 238.621094 C 199.960938 237.722656 199.738281 236.734375 199.746094 235.683594 C 199.734375 233.734375 200.210938 231.933594 201.167969 230.335938 C 201.535156 229.757812 201.941406 229.21875 202.382812 228.710938 C 202.839844 228.195312 203.359375 227.734375 203.929688 227.351562 C 204.492188 226.96875 205.105469 226.648438 205.753906 226.40625 C 206.425781 226.15625 207.671875 226.0625 207.816406 226.054688 C 207.855469 226.050781 207.898438 226.054688 207.941406 226.058594 C 207.984375 226.0625 209.007812 226.210938 209.707031 226.460938 C 210.398438 226.707031 211.0625 227.046875 211.683594 227.464844 C 212.320312 227.894531 212.859375 228.402344 213.289062 228.96875 C 213.777344 229.609375 213.984375 230.3125 213.902344 231.050781 C 213.863281 231.472656 213.71875 231.859375 213.480469 232.191406 C 213.246094 232.507812 212.957031 232.753906 212.621094 232.925781 C 212.285156 233.097656 211.914062 233.1875 211.523438 233.199219 C 211.125 233.207031 210.734375 233.117188 210.363281 232.925781 C 209.953125 232.710938 209.636719 232.464844 209.414062 232.1875 C 209.261719 231.996094 209.066406 231.75 208.824219 231.449219 C 208.671875 231.355469 208.527344 231.246094 208.394531 231.117188 C 208.378906 231.097656 208.371094 231.097656 208.359375 231.097656 L 207.667969 231.023438 C 207.546875 231.0625 207.4375 231.089844 207.328125 231.117188 L 207.039062 231.191406 C 206.34375 231.65625 205.78125 232.214844 205.355469 232.859375 C 204.929688 233.503906 204.695312 234.265625 204.652344 235.125 C 204.621094 235.65625 204.6875 236.105469 204.847656 236.46875 C 204.996094 236.8125 205.191406 237.058594 205.441406 237.222656 C 205.683594 237.378906 205.976562 237.453125 206.332031 237.441406 C 206.714844 237.425781 207.132812 237.285156 207.582031 237.027344 C 207.59375 237.019531 207.605469 237.015625 207.617188 237.007812 L 207.789062 236.921875 C 207.808594 236.910156 207.828125 236.902344 207.847656 236.894531 C 208.535156 236.640625 209.167969 236.601562 209.730469 236.777344 C 210.296875 236.953125 210.738281 237.265625 211.042969 237.703125 C 211.359375 238.164062 211.476562 238.703125 211.386719 239.308594 C 211.300781 239.890625 210.984375 240.449219 210.445312 240.960938 C 210.105469 241.296875 209.660156 241.578125 209.128906 241.796875 C 208.632812 241.996094 208.15625 242.140625 207.710938 242.226562 C 207.234375 242.328125 206.757812 242.382812 206.289062 242.382812 Z M 207.832031 227.292969 C 207.359375 227.332031 206.550781 227.429688 206.191406 227.566406 C 205.632812 227.777344 205.105469 228.046875 204.621094 228.375 C 204.140625 228.703125 203.699219 229.089844 203.3125 229.53125 C 202.914062 229.988281 202.546875 230.476562 202.222656 230.992188 C 201.394531 232.378906 200.972656 233.964844 200.980469 235.683594 C 200.980469 236.550781 201.15625 237.355469 201.507812 238.082031 C 201.863281 238.8125 202.347656 239.433594 202.949219 239.929688 C 203.542969 240.425781 204.242188 240.777344 205.023438 240.988281 C 205.792969 241.1875 206.613281 241.203125 207.460938 241.019531 C 207.84375 240.945312 208.238281 240.824219 208.65625 240.65625 C 209.039062 240.5 209.347656 240.304688 209.578125 240.078125 C 209.921875 239.75 210.113281 239.4375 210.160156 239.132812 C 210.203125 238.839844 210.160156 238.613281 210.023438 238.414062 C 209.878906 238.203125 209.660156 238.054688 209.359375 237.960938 C 209.070312 237.871094 208.714844 237.898438 208.304688 238.046875 L 208.179688 238.109375 C 207.558594 238.464844 206.953125 238.660156 206.371094 238.679688 C 205.757812 238.703125 205.214844 238.558594 204.757812 238.261719 C 204.308594 237.964844 203.953125 237.53125 203.707031 236.96875 C 203.46875 236.425781 203.367188 235.785156 203.40625 235.0625 C 203.460938 233.988281 203.765625 233.015625 204.3125 232.179688 C 204.847656 231.367188 205.5625 230.667969 206.445312 230.101562 C 206.5 230.0625 206.5625 230.039062 206.628906 230.019531 L 207.015625 229.921875 C 207.136719 229.890625 207.269531 229.851562 207.410156 229.808594 C 207.492188 229.785156 207.578125 229.773438 207.660156 229.785156 L 208.472656 229.867188 C 208.769531 229.894531 209.046875 230.027344 209.265625 230.242188 C 209.335938 230.316406 209.414062 230.371094 209.5 230.410156 C 209.582031 230.453125 209.65625 230.511719 209.710938 230.585938 C 209.984375 230.929688 210.203125 231.207031 210.371094 231.414062 C 210.488281 231.558594 210.671875 231.699219 210.929688 231.832031 C 211.109375 231.925781 211.285156 231.972656 211.488281 231.964844 C 211.699219 231.960938 211.878906 231.914062 212.050781 231.828125 C 212.21875 231.738281 212.359375 231.621094 212.476562 231.460938 C 212.585938 231.3125 212.648438 231.140625 212.664062 230.929688 C 212.710938 230.496094 212.59375 230.101562 212.296875 229.714844 C 211.949219 229.257812 211.507812 228.84375 210.988281 228.492188 C 210.449219 228.132812 209.878906 227.835938 209.285156 227.625 C 208.835938 227.464844 208.132812 227.339844 207.828125 227.292969 Z M 207.832031 227.292969 " fill-opacity="1" fill-rule="nonzero"/><g fill="#ffffff" fill-opacity="1"><g transform="translate(154.404509, 206.898108)"><g><path d="M 29.1875 1.578125 C 20.3125 1.578125 13.601562 0.414062 9.0625 -1.90625 C 4.519531 -4.226562 2.25 -8.132812 2.25 -13.625 C 2.25 -15.46875 2.472656 -17.425781 2.921875 -19.5 C 3.367188 -21.570312 3.84375 -23.53125 4.34375 -25.375 L 9.953125 -23.953125 C 9.648438 -22.859375 9.3125 -21.460938 8.9375 -19.765625 C 8.570312 -18.066406 8.390625 -16.59375 8.390625 -15.34375 C 8.390625 -12.75 9.050781 -10.664062 10.375 -9.09375 C 11.695312 -7.519531 14.003906 -6.367188 17.296875 -5.640625 C 20.585938 -4.921875 25.203125 -4.5625 31.140625 -4.5625 C 36.078125 -4.5625 40.144531 -4.75 43.34375 -5.125 C 46.539062 -5.5 49.023438 -6.097656 50.796875 -6.921875 C 52.566406 -7.742188 53.773438 -8.816406 54.421875 -10.140625 C 55.066406 -11.460938 55.367188 -13.070312 55.328125 -14.96875 L 53.90625 -53.453125 L 59.96875 -53.453125 L 61.453125 -15.640625 C 61.554688 -12.992188 61.234375 -10.609375 60.484375 -8.484375 C 59.734375 -6.367188 58.234375 -4.5625 55.984375 -3.0625 C 53.742188 -1.570312 50.476562 -0.425781 46.1875 0.375 C 41.894531 1.175781 36.226562 1.578125 29.1875 1.578125 Z M 27.25 -15.265625 L 25.828125 -19.984375 C 28.972656 -20.835938 31.21875 -21.523438 32.5625 -22.046875 C 33.90625 -22.566406 34.578125 -23.128906 34.578125 -23.734375 C 34.578125 -24.273438 34.289062 -24.78125 33.71875 -25.25 C 33.144531 -25.726562 32.492188 -26.226562 31.765625 -26.75 C 31.046875 -27.28125 30.398438 -27.894531 29.828125 -28.59375 C 29.253906 -29.289062 28.96875 -30.140625 28.96875 -31.140625 C 28.96875 -32.441406 29.59375 -33.863281 30.84375 -35.40625 C 32.09375 -36.957031 34.5625 -38.628906 38.25 -40.421875 L 40.578125 -36.15625 C 38.273438 -35.0625 36.585938 -34.125 35.515625 -33.34375 C 34.441406 -32.570312 33.90625 -31.890625 33.90625 -31.296875 C 33.90625 -30.847656 34.191406 -30.375 34.765625 -29.875 C 35.347656 -29.375 36 -28.820312 36.71875 -28.21875 C 37.4375 -27.625 38.082031 -26.9375 38.65625 -26.15625 C 39.238281 -25.382812 39.53125 -24.476562 39.53125 -23.4375 C 39.53125 -22.488281 39.226562 -21.5625 38.625 -20.65625 C 38.03125 -19.757812 36.859375 -18.875 35.109375 -18 C 33.359375 -17.125 30.738281 -16.210938 27.25 -15.265625 Z M 27.25 -15.265625 "/></g></g></g></svg>