<svg xmlns="http://www.w3.org/2000/svg" xmlns:xlink="http://www.w3.org/1999/xlink" width="500" zoomAndPan="magnify" viewBox="0 0 375 374.999991" height="500" preserveAspectRatio="xMidYMid meet" version="1.0"><defs><g/><clipPath id="ea5fd41de4"><path d="M 77.984375 80.808594 L 297.316406 80.808594 L 297.316406 292.691406 L 77.984375 292.691406 Z M 77.984375 80.808594 " clip-rule="nonzero"/></clipPath><clipPath id="811571e030"><path d="M 95.234375 80.808594 L 279.765625 80.808594 C 284.339844 80.808594 288.726562 82.625 291.960938 85.859375 C 295.195312 89.09375 297.015625 93.484375 297.015625 98.058594 L 297.015625 275.441406 C 297.015625 280.015625 295.195312 284.40625 291.960938 287.640625 C 288.726562 290.875 284.339844 292.691406 279.765625 292.691406 L 95.234375 292.691406 C 90.660156 292.691406 86.273438 290.875 83.039062 287.640625 C 79.804688 284.40625 77.984375 280.015625 77.984375 275.441406 L 77.984375 98.058594 C 77.984375 93.484375 79.804688 89.09375 83.039062 85.859375 C 86.273438 82.625 90.660156 80.808594 95.234375 80.808594 Z M 95.234375 80.808594 " clip-rule="nonzero"/></clipPath><clipPath id="671870cda2"><path d="M 90 202 L 135 202 L 135 279 L 90 279 Z M 90 202 " clip-rule="nonzero"/></clipPath><clipPath id="16625a8f80"><path d="M 79.246094 208.242188 L 104.664062 195.347656 L 143.347656 271.597656 L 117.929688 284.492188 Z M 79.246094 208.242188 " clip-rule="nonzero"/></clipPath><clipPath id="fe5e2d727a"><path d="M 79.246094 208.242188 L 104.664062 195.347656 L 143.347656 271.597656 L 117.929688 284.492188 Z M 79.246094 208.242188 " clip-rule="nonzero"/></clipPath><clipPath id="3ee86a0d52"><path d="M 90 202 L 131 202 L 131 279 L 90 279 Z M 90 202 " clip-rule="nonzero"/></clipPath><clipPath id="74f852d1b7"><path d="M 79.246094 208.242188 L 104.664062 195.347656 L 143.347656 271.597656 L 117.929688 284.492188 Z M 79.246094 208.242188 " clip-rule="nonzero"/></clipPath><clipPath id="85d5ab7a27"><path d="M 79.246094 208.242188 L 104.664062 195.347656 L 143.347656 271.597656 L 117.929688 284.492188 Z M 79.246094 208.242188 " clip-rule="nonzero"/></clipPath><clipPath id="0db54278f0"><path d="M 93 204 L 130 204 L 130 277 L 93 277 Z M 93 204 " clip-rule="nonzero"/></clipPath><clipPath id="c30de5a5f0"><path d="M 79.246094 208.242188 L 104.664062 195.347656 L 143.347656 271.597656 L 117.929688 284.492188 Z M 79.246094 208.242188 " clip-rule="nonzero"/></clipPath><clipPath id="11631e3b29"><path d="M 79.246094 208.242188 L 104.664062 195.347656 L 143.347656 271.597656 L 117.929688 284.492188 Z M 79.246094 208.242188 " clip-rule="nonzero"/></clipPath><clipPath id="e40582b780"><path d="M 70 228 L 129 228 L 129 291 L 70 291 Z M 70 228 " clip-rule="nonzero"/></clipPath><clipPath id="cf493d86a0"><path d="M 61.277344 237.050781 L 82.503906 218.03125 L 138.558594 280.59375 L 117.335938 299.613281 Z M 61.277344 237.050781 " clip-rule="nonzero"/></clipPath><clipPath id="78aed0d514"><path d="M 61.277344 237.050781 L 82.503906 218.03125 L 138.558594 280.59375 L 117.335938 299.613281 Z M 61.277344 237.050781 " clip-rule="nonzero"/></clipPath><clipPath id="a33eef8cae"><path d="M 70 228 L 128 228 L 128 291 L 70 291 Z M 70 228 " clip-rule="nonzero"/></clipPath><clipPath id="54977c3a2c"><path d="M 61.277344 237.050781 L 82.503906 218.03125 L 138.558594 280.59375 L 117.335938 299.613281 Z M 61.277344 237.050781 " clip-rule="nonzero"/></clipPath><clipPath id="5efb9aa27e"><path d="M 61.277344 237.050781 L 82.503906 218.03125 L 138.558594 280.59375 L 117.335938 299.613281 Z M 61.277344 237.050781 " clip-rule="nonzero"/></clipPath><clipPath id="db4cc35337"><path d="M 73 230 L 127 230 L 127 289 L 73 289 Z M 73 230 " clip-rule="nonzero"/></clipPath><clipPath id="0ac0e822d9"><path d="M 61.277344 237.050781 L 82.503906 218.03125 L 138.558594 280.59375 L 117.335938 299.613281 Z M 61.277344 237.050781 " clip-rule="nonzero"/></clipPath><clipPath id="30f76640a6"><path d="M 61.277344 237.050781 L 82.503906 218.03125 L 138.558594 280.59375 L 117.335938 299.613281 Z M 61.277344 237.050781 " clip-rule="nonzero"/></clipPath><clipPath id="c5eeea42ab"><path d="M 121 226 L 144 226 L 144 292 L 121 292 Z M 121 226 " clip-rule="nonzero"/></clipPath><clipPath id="44dbe39b8c"><path d="M 117.152344 227.65625 L 138.808594 225.65625 L 144.804688 290.628906 L 123.148438 292.628906 Z M 117.152344 227.65625 " clip-rule="nonzero"/></clipPath><clipPath id="8a17b42795"><path d="M 117.152344 227.65625 L 138.808594 225.65625 L 144.804688 290.628906 L 123.148438 292.628906 Z M 117.152344 227.65625 " clip-rule="nonzero"/></clipPath><clipPath id="658dc12ac6"><path d="M 121 226 L 135 226 L 135 292 L 121 292 Z M 121 226 " clip-rule="nonzero"/></clipPath><clipPath id="eec4516947"><path d="M 117.152344 227.65625 L 138.808594 225.65625 L 144.804688 290.628906 L 123.148438 292.628906 Z M 117.152344 227.65625 " clip-rule="nonzero"/></clipPath><clipPath id="a8f43c34ef"><path d="M 117.152344 227.65625 L 138.808594 225.65625 L 144.804688 290.628906 L 123.148438 292.628906 Z M 117.152344 227.65625 " clip-rule="nonzero"/></clipPath><clipPath id="7df37ba3d2"><path d="M 127 229 L 135 229 L 135 290 L 127 290 Z M 127 229 " clip-rule="nonzero"/></clipPath><clipPath id="be2e51c327"><path d="M 117.152344 227.65625 L 138.808594 225.65625 L 144.804688 290.628906 L 123.148438 292.628906 Z M 117.152344 227.65625 " clip-rule="nonzero"/></clipPath><clipPath id="f1fc38acdb"><path d="M 117.152344 227.65625 L 138.808594 225.65625 L 144.804688 290.628906 L 123.148438 292.628906 Z M 117.152344 227.65625 " clip-rule="nonzero"/></clipPath></defs><g clip-path="url(#ea5fd41de4)"><g clip-path="url(#811571e030)"><path fill="#006e7f" d="M 77.984375 80.808594 L 297.316406 80.808594 L 297.316406 292.691406 L 77.984375 292.691406 Z M 77.984375 80.808594 " fill-opacity="1" fill-rule="nonzero"/></g></g><g clip-path="url(#671870cda2)"><g clip-path="url(#16625a8f80)"><g clip-path="url(#fe5e2d727a)"><path fill="#22a699" d="M 128.003906 256.902344 C 128.003906 256.902344 130.242188 251.582031 129.246094 243.636719 C 126.664062 238.980469 124.085938 234.804688 121.550781 231.078125 C 121.859375 236.714844 120.699219 240.613281 120.699219 240.613281 C 120.699219 240.613281 120.777344 231.621094 113.472656 220.339844 C 110.988281 217.378906 108.625 214.851562 106.429688 212.703125 C 107.875 217.46875 107.855469 220.546875 107.855469 220.546875 C 107.855469 220.546875 107.433594 216.722656 104 210.410156 C 96.835938 203.90625 90.839844 202.375 90.839844 202.375 C 90.839844 202.375 91.515625 203.972656 91.445312 208.121094 C 97.160156 221.3125 103.34375 225.652344 103.34375 225.652344 C 103.34375 225.652344 97.253906 222.355469 91.609375 213.625 C 91.785156 216.042969 92.113281 218.8125 92.679688 221.90625 C 96.40625 242.027344 113.09375 247.355469 113.09375 247.355469 C 113.09375 247.355469 105.671875 246.824219 98.800781 242.507812 C 100.179688 245.914062 101.804688 249.503906 103.71875 253.265625 C 110.613281 262.375 118.980469 264.363281 118.980469 264.363281 C 118.980469 264.363281 113.910156 264.09375 107.667969 260.550781 C 107.933594 261.015625 108.203125 261.480469 108.480469 261.949219 C 115.554688 273.972656 130.730469 278.027344 130.730469 278.027344 C 130.730469 278.027344 138.4375 261.472656 132.496094 249.761719 C 132.105469 248.988281 131.710938 248.230469 131.320312 247.480469 C 130.273438 253.421875 128.003906 256.902344 128.003906 256.902344 " fill-opacity="1" fill-rule="nonzero"/></g></g></g><g clip-path="url(#3ee86a0d52)"><g clip-path="url(#74f852d1b7)"><g clip-path="url(#85d5ab7a27)"><path fill="#22a699" d="M 130.730469 278.027344 C 130.730469 278.027344 115.554688 273.972656 108.480469 261.949219 C 108.203125 261.480469 107.933594 261.015625 107.667969 260.550781 C 113.910156 264.09375 118.980469 264.363281 118.980469 264.363281 C 118.980469 264.363281 110.613281 262.375 103.71875 253.265625 C 103.699219 253.230469 103.679688 253.191406 103.664062 253.15625 C 101.773438 249.433594 100.167969 245.878906 98.800781 242.507812 C 105.671875 246.824219 113.09375 247.355469 113.09375 247.355469 C 113.09375 247.355469 102.097656 243.84375 95.964844 231.761719 C 94.542969 228.957031 93.378906 225.695312 92.679688 221.90625 C 92.113281 218.8125 91.785156 216.042969 91.609375 213.625 C 97.253906 222.355469 103.34375 225.652344 103.34375 225.652344 C 103.34375 225.652344 98.4375 222.210938 93.328125 212.140625 C 92.699219 210.902344 92.070312 209.566406 91.445312 208.121094 C 91.515625 203.972656 90.839844 202.375 90.839844 202.375 C 90.839844 202.375 100.890625 215.4375 113.753906 239.355469 C 126.617188 263.277344 130.730469 278.027344 130.730469 278.027344 " fill-opacity="1" fill-rule="nonzero"/></g></g></g><g clip-path="url(#0db54278f0)"><g clip-path="url(#c30de5a5f0)"><g clip-path="url(#11631e3b29)"><path fill="#8c1a29" d="M 121.773438 252.558594 C 127.714844 264.269531 129.597656 276.148438 129.597656 276.148438 C 129.597656 276.148438 127.378906 266.085938 121.027344 253.695312 C 101.371094 215.34375 93.164062 204.972656 93.164062 204.972656 C 93.164062 204.972656 102.125 213.828125 121.773438 252.558594 " fill-opacity="1" fill-rule="nonzero"/></g></g></g><g clip-path="url(#e40582b780)"><g clip-path="url(#cf493d86a0)"><g clip-path="url(#78aed0d514)"><path fill="#f24c3d" d="M 120.023438 270.941406 C 120.023438 270.941406 120.796875 265.3125 117.832031 258.007812 C 114.191406 254.234375 110.675781 250.921875 107.320312 248.015625 C 109.042969 253.300781 108.933594 257.304688 108.933594 257.304688 C 108.933594 257.304688 106.722656 248.730469 96.90625 239.859375 C 93.792969 237.675781 90.898438 235.871094 88.269531 234.386719 C 90.855469 238.550781 91.617188 241.484375 91.617188 241.484375 C 91.617188 241.484375 90.242188 237.953125 85.371094 232.820312 C 76.90625 228.453125 70.8125 228.527344 70.8125 228.527344 C 70.8125 228.527344 71.863281 229.871094 72.851562 233.835938 C 81.636719 244.929688 88.625 247.484375 88.625 247.484375 C 88.625 247.484375 81.992188 245.898438 74.40625 239.027344 C 75.1875 241.285156 76.203125 243.832031 77.527344 246.632812 C 86.1875 264.824219 103.414062 265.652344 103.414062 265.652344 C 103.414062 265.652344 96.21875 267.03125 88.585938 264.671875 C 90.761719 267.558594 93.222656 270.5625 95.996094 273.65625 C 104.871094 280.566406 113.332031 280.332031 113.332031 280.332031 C 113.332031 280.332031 108.445312 281.363281 101.605469 279.578125 C 101.976562 279.953125 102.351562 280.328125 102.730469 280.703125 C 112.515625 290.339844 127.984375 290.339844 127.984375 290.339844 C 127.984375 290.339844 131.105469 272.636719 122.480469 263.007812 C 121.910156 262.371094 121.34375 261.75 120.777344 261.136719 C 121.292969 267.054688 120.023438 270.941406 120.023438 270.941406 " fill-opacity="1" fill-rule="nonzero"/></g></g></g><g clip-path="url(#a33eef8cae)"><g clip-path="url(#54977c3a2c)"><g clip-path="url(#5efb9aa27e)"><path fill="#97192b" d="M 127.984375 290.339844 C 127.984375 290.339844 112.515625 290.339844 102.730469 280.703125 C 102.351562 280.328125 101.976562 279.953125 101.605469 279.578125 C 108.445312 281.363281 113.332031 280.332031 113.332031 280.332031 C 113.332031 280.332031 104.871094 280.566406 95.996094 273.65625 C 95.96875 273.625 95.945312 273.59375 95.917969 273.566406 C 93.171875 270.503906 90.742188 267.53125 88.585938 264.671875 C 96.21875 267.03125 103.414062 265.652344 103.414062 265.652344 C 103.414062 265.652344 92.0625 265.105469 83.15625 255.171875 C 81.089844 252.867188 79.15625 250.058594 77.527344 246.632812 C 76.203125 243.832031 75.1875 241.285156 74.40625 239.027344 C 81.992188 245.898438 88.625 247.484375 88.625 247.484375 C 88.625 247.484375 83.082031 245.460938 75.664062 237.179688 C 74.75 236.160156 73.8125 235.050781 72.851562 233.835938 C 71.863281 229.871094 70.8125 228.527344 70.8125 228.527344 C 70.8125 228.527344 83.691406 238.394531 102.007812 257.875 C 120.324219 277.355469 127.984375 290.339844 127.984375 290.339844 " fill-opacity="1" fill-rule="nonzero"/></g></g></g><g clip-path="url(#db4cc35337)"><g clip-path="url(#0ac0e822d9)"><g clip-path="url(#30f76640a6)"><path fill="#8c1a29" d="M 112.992188 268.394531 C 121.617188 278.023438 126.429688 288.84375 126.429688 288.84375 C 126.429688 288.84375 121.761719 279.832031 112.570312 269.664062 C 84.128906 238.179688 73.683594 230.40625 73.683594 230.40625 C 73.683594 230.40625 84.457031 236.550781 112.992188 268.394531 " fill-opacity="1" fill-rule="nonzero"/></g></g></g><g clip-path="url(#c5eeea42ab)"><g clip-path="url(#44dbe39b8c)"><g clip-path="url(#8a17b42795)"><path fill="#f2be22" d="M 137.9375 275.617188 C 137.9375 275.617188 141.003906 272.488281 142.527344 266.605469 C 142.007812 262.597656 141.355469 258.933594 140.609375 255.59375 C 139.25 259.65625 137.339844 262.082031 137.339844 262.082031 C 137.339844 262.082031 139.910156 255.761719 137.914062 245.757812 C 136.992188 242.976562 136.027344 240.53125 135.082031 238.402344 C 134.769531 242.167969 133.894531 244.335938 133.894531 244.335938 C 133.894531 244.335938 134.664062 241.519531 134.007812 236.105469 C 130.777344 229.515625 126.972656 226.757812 126.972656 226.757812 C 126.972656 226.757812 127.003906 228.074219 125.792969 230.980469 C 126.132812 241.882812 129.285156 246.675781 129.285156 246.675781 C 129.285156 246.675781 125.90625 242.648438 124.371094 234.90625 C 123.816406 236.664062 123.277344 238.707031 122.808594 241.050781 C 119.8125 256.285156 130.089844 264.710938 130.089844 264.710938 C 130.089844 264.710938 125.003906 262.261719 121.367188 257.292969 C 121.386719 260.082031 121.527344 263.066406 121.824219 266.257812 C 124.140625 274.609375 129.484375 278.355469 129.484375 278.355469 C 129.484375 278.355469 125.988281 276.746094 122.574219 272.5 C 122.632812 272.902344 122.691406 273.304688 122.753906 273.714844 C 124.382812 284.171875 133.953125 291.277344 133.953125 291.277344 C 133.953125 291.277344 144.019531 281.753906 143.105469 271.835938 C 143.042969 271.179688 142.980469 270.535156 142.910156 269.894531 C 140.511719 273.796875 137.9375 275.617188 137.9375 275.617188 " fill-opacity="1" fill-rule="nonzero"/></g></g></g><g clip-path="url(#658dc12ac6)"><g clip-path="url(#eec4516947)"><g clip-path="url(#a8f43c34ef)"><path fill="#f29727" d="M 133.953125 291.277344 C 133.953125 291.277344 124.382812 284.171875 122.753906 273.714844 C 122.691406 273.304688 122.632812 272.902344 122.574219 272.5 C 125.988281 276.746094 129.484375 278.355469 129.484375 278.355469 C 129.484375 278.355469 124.140625 274.609375 121.824219 266.257812 C 121.820312 266.226562 121.820312 266.195312 121.816406 266.164062 C 121.523438 263.007812 121.386719 260.054688 121.367188 257.292969 C 125.003906 262.261719 130.089844 264.710938 130.089844 264.710938 C 130.089844 264.710938 123.316406 259.160156 122.371094 248.917969 C 122.148438 246.542969 122.242188 243.917969 122.808594 241.050781 C 123.277344 238.707031 123.816406 236.664062 124.371094 234.90625 C 125.90625 242.648438 129.285156 246.675781 129.285156 246.675781 C 129.285156 246.675781 126.785156 242.875 126 234.339844 C 125.902344 233.292969 125.832031 232.175781 125.792969 230.980469 C 127.003906 228.074219 126.972656 226.757812 126.972656 226.757812 C 126.972656 226.757812 130.410156 238.785156 132.792969 259.253906 C 135.179688 279.722656 133.953125 291.277344 133.953125 291.277344 " fill-opacity="1" fill-rule="nonzero"/></g></g></g><g clip-path="url(#7df37ba3d2)"><g clip-path="url(#be2e51c327)"><g clip-path="url(#f1fc38acdb)"><path fill="#8c1a29" d="M 134.757812 270.808594 C 135.675781 280.730469 133.679688 289.636719 133.679688 289.636719 C 133.679688 289.636719 134.929688 281.917969 133.914062 271.402344 C 130.777344 238.851562 127.886719 229.242188 127.886719 229.242188 C 127.886719 229.242188 131.730469 237.992188 134.757812 270.808594 " fill-opacity="1" fill-rule="nonzero"/></g></g></g><g fill="#ffffff" fill-opacity="1"><g transform="translate(173.704136, 198.218542)"><g><path d="M 0.296875 17.21875 L -1.875 11.53125 C 3.164062 9.9375 7.046875 8.039062 9.765625 5.84375 C 12.484375 3.644531 14.351562 1.335938 15.375 -1.078125 C 16.40625 -3.503906 16.921875 -5.816406 16.921875 -8.015625 C 16.921875 -9.410156 16.769531 -10.753906 16.46875 -12.046875 C 16.164062 -13.347656 15.640625 -14.820312 14.890625 -16.46875 C 14.148438 -18.113281 13.101562 -20.160156 11.75 -22.609375 L 17.21875 -25.375 C 19.113281 -22.132812 20.472656 -19.066406 21.296875 -16.171875 C 22.117188 -13.273438 22.53125 -10.726562 22.53125 -8.53125 C 22.53125 -5.382812 22.019531 -2.539062 21 0 C 19.976562 2.539062 18.628906 4.796875 16.953125 6.765625 C 15.285156 8.742188 13.460938 10.429688 11.484375 11.828125 C 9.515625 13.222656 7.546875 14.367188 5.578125 15.265625 C 3.609375 16.171875 1.847656 16.820312 0.296875 17.21875 Z M 0.296875 17.21875 "/></g></g></g></svg>