<svg xmlns="http://www.w3.org/2000/svg" xmlns:xlink="http://www.w3.org/1999/xlink" width="500" zoomAndPan="magnify" viewBox="0 0 375 374.999991" height="500" preserveAspectRatio="xMidYMid meet" version="1.0"><defs><g/><clipPath id="c84e4ad1ad"><path d="M 77.984375 80.808594 L 297.316406 80.808594 L 297.316406 292.691406 L 77.984375 292.691406 Z M 77.984375 80.808594 " clip-rule="nonzero"/></clipPath><clipPath id="b2b2fcb36a"><path d="M 95.234375 80.808594 L 279.765625 80.808594 C 284.339844 80.808594 288.726562 82.625 291.960938 85.859375 C 295.195312 89.09375 297.015625 93.484375 297.015625 98.058594 L 297.015625 275.441406 C 297.015625 280.015625 295.195312 284.40625 291.960938 287.640625 C 288.726562 290.875 284.339844 292.691406 279.765625 292.691406 L 95.234375 292.691406 C 90.660156 292.691406 86.273438 290.875 83.039062 287.640625 C 79.804688 284.40625 77.984375 280.015625 77.984375 275.441406 L 77.984375 98.058594 C 77.984375 93.484375 79.804688 89.09375 83.039062 85.859375 C 86.273438 82.625 90.660156 80.808594 95.234375 80.808594 Z M 95.234375 80.808594 " clip-rule="nonzero"/></clipPath><clipPath id="639dba9a6a"><path d="M 211 234.410156 L 279 234.410156 L 279 288 L 211 288 Z M 211 234.410156 " clip-rule="nonzero"/></clipPath><clipPath id="6140e76a64"><path d="M 282 275 L 285.5625 275 L 285.5625 281 L 282 281 Z M 282 275 " clip-rule="nonzero"/></clipPath><clipPath id="eaed3befc9"><path d="M 238 287 L 242 287 L 242 292.910156 L 238 292.910156 Z M 238 287 " clip-rule="nonzero"/></clipPath><clipPath id="00d674d55d"><path d="M 184.3125 276 L 189 276 L 189 284 L 184.3125 284 Z M 184.3125 276 " clip-rule="nonzero"/></clipPath><clipPath id="0985d28a52"><path d="M 210 234.410156 L 241 234.410156 L 241 292.910156 L 210 292.910156 Z M 210 234.410156 " clip-rule="nonzero"/></clipPath><clipPath id="904d067197"><path d="M 267 234.410156 L 285 234.410156 L 285 281 L 267 281 Z M 267 234.410156 " clip-rule="nonzero"/></clipPath></defs><g clip-path="url(#c84e4ad1ad)"><g clip-path="url(#b2b2fcb36a)"><path fill="#006e7f" d="M 77.984375 80.808594 L 297.316406 80.808594 L 297.316406 292.691406 L 77.984375 292.691406 Z M 77.984375 80.808594 " fill-opacity="1" fill-rule="nonzero"/></g></g><g clip-path="url(#639dba9a6a)"><path fill="#f2be22" d="M 211.785156 238.015625 L 213.878906 238.179688 C 227.636719 239.34375 237.933594 239.628906 244.769531 239.039062 C 250.867188 238.574219 258.722656 237.179688 268.328125 234.847656 L 278.402344 281.558594 C 265.472656 283.921875 251.632812 285.878906 236.886719 287.425781 L 211.785156 238.015625 " fill-opacity="1" fill-rule="nonzero"/></g><path fill="#001719" d="M 268.210938 240.597656 L 268.199219 240.605469 C 265.09375 242.609375 261.449219 244.492188 257.269531 246.25 C 253.945312 247.605469 250.789062 248.425781 247.796875 248.714844 C 244.730469 248.949219 242.203125 249.082031 240.222656 249.109375 C 238.335938 249.113281 236.582031 248.996094 234.96875 248.765625 C 233.425781 248.558594 231.492188 248.128906 229.164062 247.476562 C 228.222656 247.25 226.050781 246.496094 222.644531 245.21875 C 222.476562 245.148438 222.292969 245.132812 222.085938 245.167969 C 222.023438 245.148438 221.941406 245.105469 221.847656 245.039062 C 223.976562 247.324219 227.585938 249.339844 232.675781 251.082031 C 237.097656 252.410156 241.429688 252.894531 245.675781 252.535156 C 249.550781 252.128906 253.332031 250.953125 257.019531 249.011719 C 259.828125 247.671875 263.558594 244.867188 268.210938 240.597656 " fill-opacity="0.224" fill-rule="nonzero"/><path fill="#001719" d="M 270.636719 247.054688 L 270.625 247.0625 C 270.957031 247.039062 268.953125 249.273438 264.613281 253.769531 C 262.300781 256.011719 260.441406 257.597656 259.039062 258.527344 C 255.976562 260.765625 252.652344 262.097656 249.070312 262.519531 C 245.753906 263.039062 242.597656 262.632812 239.605469 261.300781 C 238.011719 260.617188 236.34375 259.695312 234.59375 258.535156 L 229.550781 255.175781 L 227.953125 253.941406 C 227.886719 253.871094 227.570312 253.699219 227 253.429688 L 226.34375 252.757812 C 227.300781 254.539062 228.898438 256.550781 231.136719 258.796875 C 232.621094 260.34375 234.558594 261.898438 236.949219 263.464844 C 240.996094 265.972656 244.964844 266.96875 248.859375 266.449219 C 257.433594 265.304688 264.691406 258.839844 270.636719 247.054688 " fill-opacity="0.224" fill-rule="nonzero"/><path fill="#001719" d="M 271.128906 257.925781 L 271.125 257.933594 C 269.085938 262.53125 266.734375 266.355469 264.066406 269.40625 C 260.671875 272.917969 257.464844 275.039062 254.441406 275.761719 C 250.582031 276.480469 247.136719 276.246094 244.101562 275.054688 C 242.472656 274.453125 240.800781 273.613281 239.089844 272.539062 L 234.207031 269.40625 C 233 268.390625 232.195312 267.835938 231.789062 267.746094 L 231.175781 267.101562 C 233.59375 271.285156 237.28125 274.796875 242.242188 277.644531 C 244.425781 278.769531 246.609375 279.488281 248.792969 279.808594 C 250.863281 280.125 252.796875 280.066406 254.59375 279.628906 C 258.285156 278.796875 261.941406 276.148438 265.570312 271.683594 C 268.15625 268.34375 270.007812 263.757812 271.128906 257.925781 " fill-opacity="0.224" fill-rule="nonzero"/><path fill="#001719" d="M 212.585938 249.183594 L 212.414062 249.21875 C 212.0625 249.363281 211.660156 249.953125 211.199219 250.976562 C 209.882812 254.265625 208.910156 256.75 208.28125 258.421875 C 206.230469 263.667969 203.796875 270.578125 200.984375 279.148438 L 197.757812 278.707031 C 199.578125 279.980469 202.121094 280.863281 205.378906 281.347656 C 216.5 283.023438 223.375 283.71875 226.007812 283.421875 C 226.339844 283.355469 226.519531 283.253906 226.546875 283.121094 C 226.648438 282.835938 226.617188 282.472656 226.445312 282.03125 C 224.878906 278.867188 223.125 274.785156 221.183594 269.792969 L 215.476562 253.640625 C 214.210938 250.546875 213.246094 249.058594 212.585938 249.183594 " fill-opacity="1" fill-rule="nonzero"/><path fill="#ac563b" d="M 259.027344 248.546875 L 258.0625 249.011719 C 257.761719 249.171875 256.957031 249.519531 255.65625 250.050781 C 255.148438 250.25 254.660156 250.425781 254.1875 250.578125 C 253.339844 250.863281 252.375 251.097656 251.296875 251.28125 L 251.566406 252.738281 C 251.796875 254.238281 252.109375 256.1875 252.507812 258.585938 C 253.703125 258.40625 254.882812 258.1875 256.050781 257.925781 C 258.082031 257.4375 259.519531 257.046875 260.359375 256.75 L 259.027344 248.546875 " fill-opacity="1" fill-rule="nonzero"/><path fill="#ac563b" d="M 250.625 251.378906 L 250.371094 251.40625 C 248.289062 251.675781 245.253906 251.789062 241.253906 251.75 L 242.421875 259.140625 C 245.613281 259.234375 248.484375 259.113281 251.035156 258.789062 L 251.835938 258.683594 C 251.578125 257.152344 251.265625 255.210938 250.898438 252.855469 Z M 250.625 251.378906 " fill-opacity="1" fill-rule="nonzero"/><path fill="#ac563b" d="M 260.46875 257.425781 L 259.609375 257.695312 C 258.675781 257.992188 257.699219 258.261719 256.675781 258.503906 C 255.933594 258.699219 254.582031 258.953125 252.621094 259.261719 C 253.09375 262.007812 253.496094 264.277344 253.828125 266.066406 C 254.128906 266.003906 254.503906 265.902344 254.957031 265.769531 C 255.980469 265.421875 256.832031 265.097656 257.515625 264.796875 C 258.5 264.359375 259.773438 263.691406 261.335938 262.785156 L 260.46875 257.425781 " fill-opacity="1" fill-rule="nonzero"/><path fill="#ac563b" d="M 251.949219 259.355469 L 251.84375 259.371094 C 250.363281 259.578125 248.957031 259.714844 247.621094 259.785156 C 246.4375 259.867188 244.742188 259.878906 242.53125 259.820312 L 243.648438 266.894531 C 247.175781 266.84375 249.863281 266.691406 251.707031 266.4375 C 252.03125 266.398438 252.515625 266.320312 253.167969 266.203125 C 252.648438 263.386719 252.242188 261.105469 251.949219 259.355469 Z M 251.949219 259.355469 " fill-opacity="1" fill-rule="nonzero"/><path fill="#f29727" d="M 189.792969 282.09375 L 211.6875 237.578125 L 237.59375 287.457031 C 231.375 287.25 227.453125 286.753906 225.832031 285.960938 C 223.183594 285.113281 221.035156 283.46875 219.390625 281.027344 C 217.792969 278.480469 216.570312 275.578125 215.722656 272.320312 C 214.785156 269.003906 213.339844 262.238281 211.390625 252.023438 C 210.0625 260.035156 208.929688 266.144531 207.992188 270.359375 C 207.019531 274.332031 205.953125 277.050781 204.796875 278.511719 C 203.859375 280.070312 202.136719 281.195312 199.621094 281.894531 C 197.871094 282.414062 194.59375 282.480469 189.792969 282.09375 " fill-opacity="1" fill-rule="nonzero"/><path fill="#f2be22" d="M 211.265625 252.019531 L 210.785156 254.109375 C 210.625 254.910156 210.148438 256.6875 209.351562 259.445312 C 209.035156 260.476562 208.71875 261.402344 208.402344 262.222656 C 207.871094 263.636719 207.132812 265.097656 206.179688 266.605469 C 203.996094 270.234375 201.238281 273.46875 197.90625 276.308594 C 197.90625 276.480469 197.996094 276.664062 198.175781 276.855469 C 199.289062 277.933594 199.972656 278.644531 200.222656 278.992188 C 200.644531 279.550781 201.011719 280.238281 201.328125 281.054688 C 201.355469 281.125 201.382812 281.195312 201.410156 281.269531 C 202.972656 280.585938 204.101562 279.667969 204.796875 278.511719 C 205.953125 277.050781 207.019531 274.332031 207.992188 270.359375 C 208.882812 266.367188 209.945312 260.671875 211.183594 253.269531 Z M 211.265625 252.019531 " fill-opacity="0.694" fill-rule="nonzero"/><path fill="#f2be22" d="M 212.015625 251.65625 L 212.28125 256.625 C 213.785156 264.296875 214.933594 269.527344 215.722656 272.320312 C 216.570312 275.578125 217.792969 278.480469 219.390625 281.027344 C 221.035156 283.46875 223.183594 285.113281 225.832031 285.960938 C 226.296875 286.1875 226.957031 286.390625 227.804688 286.570312 C 227.773438 286.425781 227.75 286.285156 227.726562 286.148438 C 227.636719 285.34375 227.667969 284.492188 227.820312 283.597656 C 227.945312 282.828125 228.21875 281.859375 228.640625 280.695312 C 228.699219 280.476562 228.683594 280.253906 228.601562 280.03125 C 227.496094 279.226562 226.441406 278.398438 225.441406 277.546875 C 224.875 277.152344 223.496094 275.824219 221.300781 273.570312 C 219.621094 271.734375 218.152344 269.804688 216.898438 267.789062 C 215.773438 265.738281 214.824219 263.535156 214.058594 261.183594 C 213.671875 260.007812 213.332031 258.792969 213.039062 257.542969 C 212.835938 256.964844 212.496094 255 212.015625 251.65625 Z M 212.015625 251.65625 " fill-opacity="0.694" fill-rule="nonzero"/><g clip-path="url(#6140e76a64)"><path fill="#f29727" d="M 283.671875 275.734375 L 283.617188 275.738281 C 283.492188 275.753906 283.417969 275.789062 283.390625 275.835938 C 283.304688 276.046875 283.226562 276.308594 283.152344 276.625 C 283.035156 277.132812 282.953125 277.496094 282.914062 277.71875 C 282.789062 278.46875 282.652344 279.324219 282.5 280.285156 C 282.601562 280.289062 282.769531 280.339844 283.007812 280.445312 C 283.230469 280.554688 283.421875 280.6875 283.585938 280.84375 L 283.9375 280.078125 C 284.328125 279.101562 284.8125 277.976562 285.382812 276.703125 C 285.382812 276.519531 285.207031 276.320312 284.863281 276.113281 C 284.703125 276.015625 284.535156 275.941406 284.359375 275.878906 C 284.230469 275.824219 284.003906 275.777344 283.671875 275.734375 Z M 283.671875 275.734375 " fill-opacity="1" fill-rule="nonzero"/></g><g clip-path="url(#eaed3befc9)"><path fill="#f29727" d="M 240.097656 287.777344 L 240.089844 287.777344 C 239.964844 287.78125 239.859375 287.8125 239.765625 287.871094 C 239.71875 287.917969 239.695312 287.941406 239.699219 287.949219 C 239.664062 288.035156 239.632812 288.128906 239.609375 288.222656 C 239.445312 289.039062 239.21875 290.363281 238.929688 292.195312 C 239.203125 292.226562 239.453125 292.300781 239.6875 292.414062 C 239.800781 292.496094 239.910156 292.589844 240.019531 292.691406 C 240.457031 291.796875 241.042969 290.480469 241.777344 288.738281 C 241.789062 288.574219 241.648438 288.402344 241.359375 288.230469 C 240.808594 287.9375 240.386719 287.785156 240.097656 287.777344 Z M 240.097656 287.777344 " fill-opacity="1" fill-rule="nonzero"/></g><g clip-path="url(#00d674d55d)"><path fill="#f29727" d="M 186.179688 276.390625 L 186.167969 276.390625 C 185.75 276.441406 185.285156 276.65625 184.769531 277.027344 C 184.507812 277.273438 184.410156 277.527344 184.476562 277.789062 C 184.757812 278.492188 185.117188 279.25 185.554688 280.066406 C 186.382812 281.601562 187.066406 282.800781 187.605469 283.664062 C 187.6875 283.550781 187.773438 283.449219 187.863281 283.359375 L 188.003906 283.230469 C 188.097656 283.152344 188.195312 283.089844 188.300781 283.035156 C 188.503906 282.929688 188.726562 282.871094 188.964844 282.867188 C 188.796875 282.277344 188.664062 281.851562 188.558594 281.589844 C 187.90625 280.003906 187.339844 278.601562 186.855469 277.386719 C 186.71875 277.070312 186.578125 276.78125 186.429688 276.511719 C 186.375 276.441406 186.292969 276.402344 186.179688 276.390625 " fill-opacity="1" fill-rule="nonzero"/></g><path fill="#ac563b" d="M 213.585938 236.273438 C 213.460938 236.273438 213.335938 236.335938 213.261719 236.449219 C 204.121094 250.222656 194.996094 265.855469 185.890625 283.347656 C 185.789062 283.539062 185.863281 283.773438 186.058594 283.875 C 186.113281 283.902344 186.175781 283.917969 186.238281 283.917969 C 186.378906 283.917969 186.515625 283.839844 186.585938 283.707031 C 195.679688 266.242188 204.789062 250.632812 213.914062 236.882812 C 214.035156 236.703125 213.984375 236.457031 213.804688 236.339844 C 213.738281 236.292969 213.664062 236.273438 213.585938 236.273438 Z M 213.585938 236.273438 " fill-opacity="1" fill-rule="nonzero"/><g clip-path="url(#0985d28a52)"><path fill="#ac563b" d="M 210.953125 234.414062 C 210.863281 234.414062 210.773438 234.441406 210.703125 234.503906 C 210.539062 234.644531 210.515625 234.886719 210.652344 235.054688 C 211.183594 235.777344 218.359375 250.363281 232.1875 278.808594 L 232.191406 278.816406 C 235.183594 284.742188 237.703125 289.304688 239.746094 292.503906 C 239.820312 292.621094 239.945312 292.683594 240.074219 292.683594 C 240.148438 292.683594 240.21875 292.664062 240.285156 292.621094 C 240.46875 292.507812 240.523438 292.265625 240.40625 292.082031 C 238.378906 288.90625 235.871094 284.367188 232.890625 278.46875 C 219.027344 249.9375 211.820312 235.308594 211.277344 234.582031 C 211.269531 234.570312 211.261719 234.5625 211.253906 234.550781 C 211.175781 234.460938 211.066406 234.414062 210.953125 234.414062 Z M 210.953125 234.414062 " fill-opacity="1" fill-rule="nonzero"/></g><g clip-path="url(#904d067197)"><path fill="#ac563b" d="M 267.640625 234.875 C 267.605469 234.875 267.566406 234.882812 267.527344 234.894531 C 267.320312 234.957031 267.203125 235.175781 267.265625 235.382812 C 273.320312 255.140625 278.945312 270.238281 284.140625 280.679688 C 284.207031 280.816406 284.347656 280.894531 284.492188 280.894531 C 284.550781 280.894531 284.609375 280.882812 284.664062 280.855469 C 284.859375 280.757812 284.9375 280.523438 284.839844 280.328125 C 279.664062 269.925781 274.054688 254.867188 268.015625 235.152344 C 267.964844 234.984375 267.808594 234.875 267.640625 234.875 Z M 267.640625 234.875 " fill-opacity="1" fill-rule="nonzero"/></g><g fill="#ffffff" fill-opacity="1"><g transform="translate(163.566958, 198.218527)"><g><path d="M 26.953125 29.5 C 23.453125 29.5 20.117188 29.097656 16.953125 28.296875 C 13.785156 27.492188 10.988281 26.253906 8.5625 24.578125 C 6.144531 22.910156 4.238281 20.804688 2.84375 18.265625 C 1.445312 15.722656 0.75 12.726562 0.75 9.28125 C 0.75 4.6875 1.820312 0.421875 3.96875 -3.515625 C 6.113281 -7.460938 9.191406 -10.941406 13.203125 -13.953125 C 17.222656 -16.972656 22.003906 -19.410156 27.546875 -21.265625 C 25.097656 -22.054688 22.539062 -22.863281 19.875 -23.6875 C 17.207031 -24.507812 14.101562 -24.921875 10.5625 -24.921875 C 9.0625 -24.921875 7.75 -24.796875 6.625 -24.546875 C 5.5 -24.296875 4.4375 -24.050781 3.4375 -23.8125 L 2.390625 -29.34375 C 3.691406 -29.84375 5.148438 -30.265625 6.765625 -30.609375 C 8.390625 -30.960938 10.023438 -31.140625 11.671875 -31.140625 C 13.972656 -31.140625 16.019531 -30.925781 17.8125 -30.5 C 19.613281 -30.082031 21.320312 -29.570312 22.9375 -28.96875 C 24.5625 -28.375 26.269531 -27.765625 28.0625 -27.140625 C 29.863281 -26.515625 31.875 -25.988281 34.09375 -25.5625 C 36.320312 -25.132812 38.957031 -24.898438 42 -24.859375 L 42.671875 -24.859375 L 42.8125 -18.71875 C 39.925781 -18.71875 36.847656 -18.328125 33.578125 -17.546875 C 30.304688 -16.773438 27.097656 -15.628906 23.953125 -14.109375 C 20.804688 -12.585938 17.945312 -10.726562 15.375 -8.53125 C 12.8125 -6.332031 10.753906 -3.8125 9.203125 -0.96875 C 7.660156 1.875 6.890625 5.039062 6.890625 8.53125 C 6.890625 12.03125 7.835938 14.863281 9.734375 17.03125 C 11.628906 19.195312 14.160156 20.78125 17.328125 21.78125 C 20.492188 22.78125 23.953125 23.28125 27.703125 23.28125 C 32.640625 23.28125 37.65625 22.28125 42.75 20.28125 L 44.84375 25.375 C 41.894531 26.769531 38.898438 27.804688 35.859375 28.484375 C 32.816406 29.160156 29.847656 29.5 26.953125 29.5 Z M 23.359375 -38.859375 C 22.316406 -38.859375 21.429688 -39.21875 20.703125 -39.9375 C 19.984375 -40.664062 19.625 -41.523438 19.625 -42.515625 C 19.625 -43.515625 19.984375 -44.390625 20.703125 -45.140625 C 21.429688 -45.890625 22.316406 -46.265625 23.359375 -46.265625 C 24.359375 -46.265625 25.21875 -45.890625 25.9375 -45.140625 C 26.664062 -44.390625 27.03125 -43.515625 27.03125 -42.515625 C 27.03125 -41.523438 26.664062 -40.664062 25.9375 -39.9375 C 25.21875 -39.21875 24.359375 -38.859375 23.359375 -38.859375 Z M 23.359375 -38.859375 "/></g></g></g></svg>