<svg xmlns="http://www.w3.org/2000/svg" xmlns:xlink="http://www.w3.org/1999/xlink" width="500" zoomAndPan="magnify" viewBox="0 0 375 374.999991" height="500" preserveAspectRatio="xMidYMid meet" version="1.0"><defs><g/><clipPath id="a75b20939d"><path d="M 77.984375 80.808594 L 297.316406 80.808594 L 297.316406 292.691406 L 77.984375 292.691406 Z M 77.984375 80.808594 " clip-rule="nonzero"/></clipPath><clipPath id="482318a27c"><path d="M 95.234375 80.808594 L 279.765625 80.808594 C 284.339844 80.808594 288.726562 82.625 291.960938 85.859375 C 295.195312 89.09375 297.015625 93.484375 297.015625 98.058594 L 297.015625 275.441406 C 297.015625 280.015625 295.195312 284.402344 291.960938 287.640625 C 288.726562 290.875 284.339844 292.691406 279.765625 292.691406 L 95.234375 292.691406 C 90.660156 292.691406 86.273438 290.875 83.039062 287.640625 C 79.804688 284.402344 77.984375 280.015625 77.984375 275.441406 L 77.984375 98.058594 C 77.984375 93.484375 79.804688 89.09375 83.039062 85.859375 C 86.273438 82.625 90.660156 80.808594 95.234375 80.808594 Z M 95.234375 80.808594 " clip-rule="nonzero"/></clipPath><clipPath id="a3ee0ad067"><path d="M 242 234.914062 L 247 234.914062 L 247 245 L 242 245 Z M 242 234.914062 " clip-rule="nonzero"/></clipPath><clipPath id="ab52d0e680"><path d="M 239.390625 246 L 249.140625 246 L 249.140625 292.664062 L 239.390625 292.664062 Z M 239.390625 246 " clip-rule="nonzero"/></clipPath><clipPath id="b4da304115"><path d="M 239.390625 247 L 249.140625 247 L 249.140625 257 L 239.390625 257 Z M 239.390625 247 " clip-rule="nonzero"/></clipPath><clipPath id="a59d0e1777"><path d="M 239.390625 257 L 249.140625 257 L 249.140625 270 L 239.390625 270 Z M 239.390625 257 " clip-rule="nonzero"/></clipPath><clipPath id="afb123c942"><path d="M 239.390625 269 L 249.140625 269 L 249.140625 282 L 239.390625 282 Z M 239.390625 269 " clip-rule="nonzero"/></clipPath><clipPath id="5bfd4c1302"><path d="M 239.390625 281 L 249.140625 281 L 249.140625 292.664062 L 239.390625 292.664062 Z M 239.390625 281 " clip-rule="nonzero"/></clipPath><clipPath id="f1de70ca5c"><path d="M 259 197.953125 L 268 197.953125 L 268 214 L 259 214 Z M 259 197.953125 " clip-rule="nonzero"/></clipPath><clipPath id="dad5cc0f82"><path d="M 255.566406 216 L 272 216 L 272 292.453125 L 255.566406 292.453125 Z M 255.566406 216 " clip-rule="nonzero"/></clipPath><clipPath id="8c62d0f17f"><path d="M 255.566406 218 L 272 218 L 272 235 L 255.566406 235 Z M 255.566406 218 " clip-rule="nonzero"/></clipPath><clipPath id="998eb2d48a"><path d="M 255.566406 234 L 272 234 L 272 254 L 255.566406 254 Z M 255.566406 234 " clip-rule="nonzero"/></clipPath><clipPath id="e392a7dda5"><path d="M 255.566406 254 L 272 254 L 272 274 L 255.566406 274 Z M 255.566406 254 " clip-rule="nonzero"/></clipPath><clipPath id="403817b2dd"><path d="M 255.566406 274 L 272 274 L 272 292.453125 L 255.566406 292.453125 Z M 255.566406 274 " clip-rule="nonzero"/></clipPath></defs><g clip-path="url(#a75b20939d)"><g clip-path="url(#482318a27c)"><path fill="#006e7f" d="M 77.984375 80.808594 L 297.316406 80.808594 L 297.316406 292.691406 L 77.984375 292.691406 Z M 77.984375 80.808594 " fill-opacity="1" fill-rule="nonzero"/></g></g><g clip-path="url(#a3ee0ad067)"><path fill="#f7e3a9" d="M 242.046875 240.78125 C 242.046875 238.191406 244.324219 234.914062 244.324219 234.914062 C 244.324219 234.914062 246.605469 238.191406 246.605469 240.78125 C 246.605469 243.367188 245.59375 244.296875 244.324219 244.296875 C 243.058594 244.296875 242.046875 243.367188 242.046875 240.78125 Z M 242.046875 240.78125 " fill-opacity="1" fill-rule="nonzero"/></g><path fill="#f2be22" d="M 244.324219 249.683594 C 244.242188 249.683594 244.183594 249.625 244.183594 249.542969 L 244.183594 241.382812 C 244.183594 241.300781 244.242188 241.242188 244.324219 241.242188 C 244.410156 241.242188 244.46875 241.300781 244.46875 241.382812 L 244.46875 249.542969 C 244.46875 249.625 244.398438 249.683594 244.324219 249.683594 Z M 244.324219 249.683594 " fill-opacity="1" fill-rule="nonzero"/><g clip-path="url(#ab52d0e680)"><path fill="#f24c3d" d="M 243.46875 246.601562 L 240.09375 248.050781 C 239.699219 248.21875 239.433594 248.613281 239.433594 249.050781 L 239.433594 290.507812 C 239.433594 291.71875 240.417969 292.6875 241.613281 292.6875 L 247.027344 292.6875 C 248.234375 292.6875 249.207031 291.703125 249.207031 290.507812 L 249.207031 249.050781 C 249.207031 248.613281 248.953125 248.21875 248.546875 248.050781 L 245.171875 246.601562 C 244.636719 246.363281 244.015625 246.363281 243.46875 246.601562 Z M 243.46875 246.601562 " fill-opacity="1" fill-rule="nonzero"/></g><g clip-path="url(#b4da304115)"><path fill="#22a699" d="M 248.558594 248.050781 L 246.535156 247.191406 L 239.433594 252.128906 L 239.433594 256.910156 L 249.21875 250.105469 L 249.21875 249.035156 C 249.21875 248.613281 248.953125 248.21875 248.558594 248.050781 Z M 248.558594 248.050781 " fill-opacity="1" fill-rule="nonzero"/></g><g clip-path="url(#a59d0e1777)"><path fill="#22a699" d="M 239.433594 264.292969 L 239.433594 269.089844 L 249.21875 262.28125 L 249.21875 257.5 Z M 239.433594 264.292969 " fill-opacity="1" fill-rule="nonzero"/></g><g clip-path="url(#afb123c942)"><path fill="#22a699" d="M 239.433594 276.472656 L 239.433594 281.253906 L 249.21875 274.449219 L 249.21875 269.667969 Z M 239.433594 276.472656 " fill-opacity="1" fill-rule="nonzero"/></g><g clip-path="url(#5bfd4c1302)"><path fill="#22a699" d="M 249.21875 281.84375 L 239.433594 288.652344 L 239.433594 290.507812 C 239.433594 291.410156 239.980469 292.183594 240.753906 292.519531 L 249.21875 286.640625 Z M 249.21875 281.84375 " fill-opacity="1" fill-rule="nonzero"/></g><g fill="#ffffff" fill-opacity="1"><g transform="translate(139.650085, 204.372101)"><g><path d="M 23.4375 17.375 C 19.6875 17.375 16.203125 16.6875 12.984375 15.3125 C 9.765625 13.9375 7.171875 11.960938 5.203125 9.390625 C 3.234375 6.828125 2.25 3.722656 2.25 0.078125 C 2.25 -1.722656 2.5 -3.71875 3 -5.90625 C 3.5 -8.101562 4.296875 -10.523438 5.390625 -13.171875 L 10.78125 -11.078125 C 9.976562 -8.984375 9.378906 -7.0625 8.984375 -5.3125 C 8.585938 -3.5625 8.390625 -1.941406 8.390625 -0.453125 C 8.390625 2.097656 9.070312 4.242188 10.4375 5.984375 C 11.8125 7.734375 13.660156 9.046875 15.984375 9.921875 C 18.304688 10.796875 20.863281 11.234375 23.65625 11.234375 C 28.195312 11.234375 31.75 10.570312 34.3125 9.25 C 36.882812 7.925781 38.707031 6.253906 39.78125 4.234375 C 40.851562 2.210938 41.390625 0.148438 41.390625 -1.953125 C 41.390625 -5.242188 41.023438 -8.273438 40.296875 -11.046875 C 39.578125 -13.816406 38.796875 -16.671875 37.953125 -19.609375 L 44.015625 -21.265625 C 44.816406 -18.421875 45.363281 -16.359375 45.65625 -15.078125 C 45.957031 -13.804688 46.234375 -12.773438 46.484375 -11.984375 C 47.035156 -10.128906 47.671875 -8.765625 48.390625 -7.890625 C 49.117188 -7.023438 49.96875 -6.453125 50.9375 -6.171875 C 51.914062 -5.898438 53.023438 -5.765625 54.265625 -5.765625 C 55.222656 -5.765625 56.097656 -5.890625 56.890625 -6.140625 C 57.691406 -6.390625 58.425781 -6.988281 59.09375 -7.9375 C 59.769531 -8.882812 60.367188 -10.394531 60.890625 -12.46875 C 61.421875 -14.539062 61.910156 -17.421875 62.359375 -21.109375 L 68.046875 -20.0625 C 67.898438 -19.164062 67.722656 -18.066406 67.515625 -16.765625 C 67.316406 -15.472656 67.128906 -14.1875 66.953125 -12.90625 C 66.785156 -11.632812 66.703125 -10.578125 66.703125 -9.734375 C 66.703125 -9.035156 66.863281 -8.375 67.1875 -7.75 C 67.507812 -7.125 68.144531 -6.632812 69.09375 -6.28125 C 70.039062 -5.9375 71.515625 -5.765625 73.515625 -5.765625 C 75.003906 -5.765625 76.320312 -5.875 77.46875 -6.09375 C 78.625 -6.320312 79.515625 -6.882812 80.140625 -7.78125 C 80.765625 -8.6875 81.078125 -10.160156 81.078125 -12.203125 C 81.078125 -14.046875 80.640625 -16.414062 79.765625 -19.3125 C 78.890625 -22.207031 77.90625 -25.078125 76.8125 -27.921875 L 82.875 -30.171875 C 83.519531 -28.523438 84.128906 -26.691406 84.703125 -24.671875 C 85.273438 -22.648438 85.757812 -20.640625 86.15625 -18.640625 C 86.5625 -16.640625 86.765625 -14.894531 86.765625 -13.40625 C 86.765625 -10.007812 86.175781 -7.300781 85 -5.28125 C 83.832031 -3.257812 82.25 -1.8125 80.25 -0.9375 C 78.25 -0.0625 75.976562 0.375 73.4375 0.375 C 70.6875 0.375 68.523438 0.015625 66.953125 -0.703125 C 65.390625 -1.429688 64.257812 -2.570312 63.5625 -4.125 C 62.457031 -2.519531 61.15625 -1.367188 59.65625 -0.671875 C 58.164062 0.0234375 56.25 0.375 53.90625 0.375 C 52.457031 0.375 51.207031 0.1875 50.15625 -0.1875 C 49.101562 -0.5625 48.226562 -1.046875 47.53125 -1.640625 C 47.1875 0.648438 46.5625 2.914062 45.65625 5.15625 C 44.757812 7.40625 43.410156 9.453125 41.609375 11.296875 C 39.816406 13.148438 37.4375 14.625 34.46875 15.71875 C 31.5 16.820312 27.820312 17.375 23.4375 17.375 Z M 61.6875 -40.796875 C 60.632812 -40.796875 59.742188 -41.15625 59.015625 -41.875 C 58.296875 -42.601562 57.9375 -43.460938 57.9375 -44.453125 C 57.9375 -45.453125 58.296875 -46.328125 59.015625 -47.078125 C 59.742188 -47.828125 60.632812 -48.203125 61.6875 -48.203125 C 62.6875 -48.203125 63.546875 -47.828125 64.265625 -47.078125 C 64.984375 -46.328125 65.34375 -45.453125 65.34375 -44.453125 C 65.34375 -43.460938 64.984375 -42.601562 64.265625 -41.875 C 63.546875 -41.15625 62.6875 -40.796875 61.6875 -40.796875 Z M 56.59375 -32.5625 C 55.539062 -32.5625 54.648438 -32.921875 53.921875 -33.640625 C 53.203125 -34.367188 52.84375 -35.226562 52.84375 -36.21875 C 52.84375 -37.21875 53.203125 -38.09375 53.921875 -38.84375 C 54.648438 -39.59375 55.539062 -39.96875 56.59375 -39.96875 C 57.59375 -39.96875 58.453125 -39.59375 59.171875 -38.84375 C 59.898438 -38.09375 60.265625 -37.21875 60.265625 -36.21875 C 60.265625 -35.226562 59.898438 -34.367188 59.171875 -33.640625 C 58.453125 -32.921875 57.59375 -32.5625 56.59375 -32.5625 Z M 66.765625 -32.5625 C 65.722656 -32.5625 64.835938 -32.921875 64.109375 -33.640625 C 63.390625 -34.367188 63.03125 -35.226562 63.03125 -36.21875 C 63.03125 -37.21875 63.390625 -38.09375 64.109375 -38.84375 C 64.835938 -39.59375 65.722656 -39.96875 66.765625 -39.96875 C 67.765625 -39.96875 68.625 -39.59375 69.34375 -38.84375 C 70.070312 -38.09375 70.4375 -37.21875 70.4375 -36.21875 C 70.4375 -35.226562 70.070312 -34.367188 69.34375 -33.640625 C 68.625 -32.921875 67.765625 -32.5625 66.765625 -32.5625 Z M 66.765625 -32.5625 "/></g></g></g><g clip-path="url(#f1de70ca5c)"><path fill="#f7e3a9" d="M 259.921875 207.566406 C 259.921875 203.324219 263.660156 197.953125 263.660156 197.953125 C 263.660156 197.953125 267.394531 203.324219 267.394531 207.566406 C 267.394531 211.8125 265.734375 213.332031 263.660156 213.332031 C 261.585938 213.332031 259.921875 211.8125 259.921875 207.566406 Z M 259.921875 207.566406 " fill-opacity="1" fill-rule="nonzero"/></g><path fill="#f2be22" d="M 263.660156 222.164062 C 263.519531 222.164062 263.429688 222.074219 263.429688 221.933594 L 263.429688 208.558594 C 263.429688 208.421875 263.519531 208.328125 263.660156 208.328125 C 263.796875 208.328125 263.890625 208.421875 263.890625 208.558594 L 263.890625 221.933594 C 263.890625 222.074219 263.773438 222.164062 263.660156 222.164062 Z M 263.660156 222.164062 " fill-opacity="1" fill-rule="nonzero"/><g clip-path="url(#dad5cc0f82)"><path fill="#f24c3d" d="M 262.253906 217.113281 L 256.71875 219.488281 C 256.074219 219.765625 255.632812 220.414062 255.632812 221.128906 L 255.632812 289.109375 C 255.632812 291.09375 257.25 292.6875 259.207031 292.6875 L 268.085938 292.6875 C 270.070312 292.6875 271.660156 291.070312 271.660156 289.109375 L 271.660156 221.128906 C 271.660156 220.414062 271.246094 219.765625 270.578125 219.488281 L 265.042969 217.113281 C 264.167969 216.722656 263.152344 216.722656 262.253906 217.113281 Z M 262.253906 217.113281 " fill-opacity="1" fill-rule="nonzero"/></g><g clip-path="url(#8c62d0f17f)"><path fill="#22a699" d="M 270.601562 219.488281 L 267.28125 218.082031 L 255.632812 226.179688 L 255.632812 234.019531 L 271.683594 222.855469 L 271.683594 221.105469 C 271.683594 220.414062 271.246094 219.765625 270.601562 219.488281 Z M 270.601562 219.488281 " fill-opacity="1" fill-rule="nonzero"/></g><g clip-path="url(#998eb2d48a)"><path fill="#22a699" d="M 255.632812 246.125 L 255.632812 253.988281 L 271.683594 242.828125 L 271.683594 234.988281 Z M 255.632812 246.125 " fill-opacity="1" fill-rule="nonzero"/></g><g clip-path="url(#e392a7dda5)"><path fill="#22a699" d="M 255.632812 266.097656 L 255.632812 273.9375 L 271.683594 262.777344 L 271.683594 254.933594 Z M 255.632812 266.097656 " fill-opacity="1" fill-rule="nonzero"/></g><g clip-path="url(#403817b2dd)"><path fill="#22a699" d="M 271.683594 274.90625 L 255.632812 286.066406 L 255.632812 289.109375 C 255.632812 290.585938 256.535156 291.855469 257.800781 292.410156 L 271.683594 282.769531 Z M 271.683594 274.90625 " fill-opacity="1" fill-rule="nonzero"/></g></svg>