<svg xmlns="http://www.w3.org/2000/svg" xmlns:xlink="http://www.w3.org/1999/xlink" width="500" zoomAndPan="magnify" viewBox="0 0 375 374.999991" height="500" preserveAspectRatio="xMidYMid meet" version="1.0"><defs><g/><clipPath id="8c75fe2845"><path d="M 77.984375 80.808594 L 297.316406 80.808594 L 297.316406 292.691406 L 77.984375 292.691406 Z M 77.984375 80.808594 " clip-rule="nonzero"/></clipPath><clipPath id="d44ebfb303"><path d="M 95.234375 80.808594 L 279.765625 80.808594 C 284.339844 80.808594 288.726562 82.625 291.960938 85.859375 C 295.195312 89.09375 297.015625 93.484375 297.015625 98.058594 L 297.015625 275.441406 C 297.015625 280.015625 295.195312 284.40625 291.960938 287.640625 C 288.726562 290.875 284.339844 292.691406 279.765625 292.691406 L 95.234375 292.691406 C 90.660156 292.691406 86.273438 290.875 83.039062 287.640625 C 79.804688 284.40625 77.984375 280.015625 77.984375 275.441406 L 77.984375 98.058594 C 77.984375 93.484375 79.804688 89.09375 83.039062 85.859375 C 86.273438 82.625 90.660156 80.808594 95.234375 80.808594 Z M 95.234375 80.808594 " clip-rule="nonzero"/></clipPath><clipPath id="a391194fa0"><path d="M 250 265 L 277 265 L 277 292 L 250 292 Z M 250 265 " clip-rule="nonzero"/></clipPath><clipPath id="fd1b407138"><path d="M 242.992188 227.511719 L 294.210938 220.109375 L 303.652344 285.429688 L 252.433594 292.832031 Z M 242.992188 227.511719 " clip-rule="nonzero"/></clipPath><clipPath id="d37464df7d"><path d="M 242.992188 227.511719 L 294.210938 220.109375 L 303.652344 285.429688 L 252.433594 292.832031 Z M 242.992188 227.511719 " clip-rule="nonzero"/></clipPath><clipPath id="84f13716df"><path d="M 265 263 L 273 263 L 273 268 L 265 268 Z M 265 263 " clip-rule="nonzero"/></clipPath><clipPath id="2e7d8be6c0"><path d="M 242.992188 227.511719 L 294.210938 220.109375 L 303.652344 285.429688 L 252.433594 292.832031 Z M 242.992188 227.511719 " clip-rule="nonzero"/></clipPath><clipPath id="82119161d2"><path d="M 242.992188 227.511719 L 294.210938 220.109375 L 303.652344 285.429688 L 252.433594 292.832031 Z M 242.992188 227.511719 " clip-rule="nonzero"/></clipPath><clipPath id="6f4368dd91"><path d="M 268 221 L 296 221 L 296 264 L 268 264 Z M 268 221 " clip-rule="nonzero"/></clipPath><clipPath id="fbfdd34687"><path d="M 242.992188 227.511719 L 294.210938 220.109375 L 303.652344 285.429688 L 252.433594 292.832031 Z M 242.992188 227.511719 " clip-rule="nonzero"/></clipPath><clipPath id="ad804ea5dd"><path d="M 242.992188 227.511719 L 294.210938 220.109375 L 303.652344 285.429688 L 252.433594 292.832031 Z M 242.992188 227.511719 " clip-rule="nonzero"/></clipPath></defs><g clip-path="url(#8c75fe2845)"><g clip-path="url(#d44ebfb303)"><path fill="#006e7f" d="M 77.984375 80.808594 L 297.316406 80.808594 L 297.316406 292.691406 L 77.984375 292.691406 Z M 77.984375 80.808594 " fill-opacity="1" fill-rule="nonzero"/></g></g><g clip-path="url(#a391194fa0)"><g clip-path="url(#fd1b407138)"><g clip-path="url(#d37464df7d)"><path fill="#f24c3d" d="M 269.238281 272.613281 L 268.238281 272.179688 L 270.03125 268.949219 L 265.128906 266.480469 C 265.128906 266.480469 264.492188 268.847656 263.019531 269.382812 C 262.640625 269.519531 261.929688 269.09375 261.929688 269.09375 L 256.71875 266.253906 L 255.570312 265.726562 L 254.828125 267.636719 L 254.664062 269.625 C 254.664062 269.625 252.496094 273.335938 251.976562 274.667969 C 251.644531 275.511719 251.054688 278.171875 251.054688 278.171875 C 251.054688 278.171875 250.902344 281.613281 251.054688 282.746094 C 251.207031 283.886719 252.269531 287.195312 252.269531 287.195312 C 252.269531 287.195312 253.996094 290.066406 254.914062 290.648438 C 255.808594 291.21875 258 291.558594 259.0625 291.550781 C 260.246094 291.542969 262.621094 291.128906 263.71875 290.6875 C 264.816406 290.246094 267.667969 288.082031 267.667969 288.082031 L 270.882812 284.585938 L 273.816406 279.023438 L 274.546875 278.386719 L 276.371094 276.472656 L 274.964844 275.714844 Z M 254.210938 278.730469 L 254.152344 283.570312 L 255.070312 288.445312 C 255.070312 288.445312 253.320312 285.039062 252.914062 283.769531 C 252.519531 282.519531 252.398438 280.070312 252.6875 278.796875 C 252.984375 277.5 254.816406 273.8125 254.816406 273.8125 Z M 254.210938 278.730469 " fill-opacity="1" fill-rule="nonzero"/></g></g></g><g clip-path="url(#84f13716df)"><g clip-path="url(#2e7d8be6c0)"><g clip-path="url(#82119161d2)"><path fill="#f2be22" d="M 265.933594 265.167969 L 268.023438 266.332031 L 270.726562 267.816406 L 272.078125 265.949219 L 269.277344 264.484375 L 266.917969 263.058594 Z M 265.933594 265.167969 " fill-opacity="1" fill-rule="nonzero"/></g></g></g><g clip-path="url(#6f4368dd91)"><g clip-path="url(#fbfdd34687)"><g clip-path="url(#ad804ea5dd)"><path fill="#141414" d="M 293.285156 222.972656 L 290.335938 221.386719 C 290.335938 221.386719 288.195312 220.976562 287.523438 221.191406 C 286.855469 221.398438 285.347656 222.949219 285.347656 222.949219 C 285.347656 222.949219 284.898438 225.070312 285.109375 225.738281 C 285.3125 226.402344 286.878906 227.886719 286.878906 227.886719 L 287.039062 228.054688 L 285.976562 230.21875 L 284.785156 232.324219 L 283.757812 234.519531 L 282.574219 236.628906 L 281.386719 238.734375 L 275.921875 248.609375 L 268.878906 262.269531 L 271.296875 263.453125 L 274.734375 257.179688 L 274.765625 257.132812 L 274.824219 257.019531 L 279.644531 248.226562 L 283.050781 241.53125 L 283.835938 240.046875 L 284.871094 237.855469 L 286.035156 235.734375 L 287.25 233.640625 L 288.40625 231.515625 L 289.539062 229.386719 L 289.785156 229.554688 L 292.628906 229.785156 C 292.628906 229.785156 294.414062 228.566406 294.746094 227.949219 C 295.078125 227.328125 295.105469 225.15625 295.105469 225.15625 Z M 292.496094 226.75 C 292.316406 227.074219 291.070312 227.136719 291.070312 227.136719 C 291.070312 227.136719 288.730469 226.128906 288.121094 225.554688 C 287.855469 225.300781 287.472656 224.496094 287.640625 224.167969 C 287.8125 223.835938 289.078125 223.746094 289.078125 223.746094 L 292.050781 225.296875 C 292.050781 225.296875 292.679688 226.417969 292.496094 226.75 Z M 292.496094 226.75 " fill-opacity="1" fill-rule="nonzero"/></g></g></g><g fill="#ffffff" fill-opacity="1"><g transform="translate(163.566958, 198.218527)"><g><path d="M 26.953125 29.5 C 23.453125 29.5 20.117188 29.097656 16.953125 28.296875 C 13.785156 27.492188 10.988281 26.253906 8.5625 24.578125 C 6.144531 22.910156 4.238281 20.804688 2.84375 18.265625 C 1.445312 15.722656 0.75 12.726562 0.75 9.28125 C 0.75 4.6875 1.820312 0.421875 3.96875 -3.515625 C 6.113281 -7.460938 9.191406 -10.941406 13.203125 -13.953125 C 17.222656 -16.972656 22.003906 -19.410156 27.546875 -21.265625 C 25.097656 -22.054688 22.539062 -22.863281 19.875 -23.6875 C 17.207031 -24.507812 14.101562 -24.921875 10.5625 -24.921875 C 9.0625 -24.921875 7.75 -24.796875 6.625 -24.546875 C 5.5 -24.296875 4.4375 -24.050781 3.4375 -23.8125 L 2.390625 -29.34375 C 3.691406 -29.84375 5.148438 -30.265625 6.765625 -30.609375 C 8.390625 -30.960938 10.023438 -31.140625 11.671875 -31.140625 C 13.972656 -31.140625 16.019531 -30.925781 17.8125 -30.5 C 19.613281 -30.082031 21.320312 -29.570312 22.9375 -28.96875 C 24.5625 -28.375 26.269531 -27.765625 28.0625 -27.140625 C 29.863281 -26.515625 31.875 -25.988281 34.09375 -25.5625 C 36.320312 -25.132812 38.957031 -24.898438 42 -24.859375 L 42.671875 -24.859375 L 42.8125 -18.71875 C 39.925781 -18.71875 36.847656 -18.328125 33.578125 -17.546875 C 30.304688 -16.773438 27.097656 -15.628906 23.953125 -14.109375 C 20.804688 -12.585938 17.945312 -10.726562 15.375 -8.53125 C 12.8125 -6.332031 10.753906 -3.8125 9.203125 -0.96875 C 7.660156 1.875 6.890625 5.039062 6.890625 8.53125 C 6.890625 12.03125 7.835938 14.863281 9.734375 17.03125 C 11.628906 19.195312 14.160156 20.78125 17.328125 21.78125 C 20.492188 22.78125 23.953125 23.28125 27.703125 23.28125 C 32.640625 23.28125 37.65625 22.28125 42.75 20.28125 L 44.84375 25.375 C 41.894531 26.769531 38.898438 27.804688 35.859375 28.484375 C 32.816406 29.160156 29.847656 29.5 26.953125 29.5 Z M 26.203125 8.53125 C 25.160156 8.53125 24.273438 8.164062 23.546875 7.4375 C 22.828125 6.71875 22.46875 5.859375 22.46875 4.859375 C 22.46875 3.859375 22.828125 2.984375 23.546875 2.234375 C 24.273438 1.492188 25.160156 1.125 26.203125 1.125 C 27.203125 1.125 28.0625 1.492188 28.78125 2.234375 C 29.507812 2.984375 29.875 3.859375 29.875 4.859375 C 29.875 5.859375 29.507812 6.71875 28.78125 7.4375 C 28.0625 8.164062 27.203125 8.53125 26.203125 8.53125 Z M 26.203125 8.53125 "/></g></g></g></svg>