<svg xmlns="http://www.w3.org/2000/svg" xmlns:xlink="http://www.w3.org/1999/xlink" width="500" zoomAndPan="magnify" viewBox="0 0 375 374.999991" height="500" preserveAspectRatio="xMidYMid meet" version="1.0"><defs><g/><clipPath id="4537c70081"><path d="M 77.984375 80.808594 L 297.316406 80.808594 L 297.316406 292.691406 L 77.984375 292.691406 Z M 77.984375 80.808594 " clip-rule="nonzero"/></clipPath><clipPath id="2d5e992de4"><path d="M 95.234375 80.808594 L 279.765625 80.808594 C 284.339844 80.808594 288.726562 82.625 291.960938 85.859375 C 295.195312 89.09375 297.015625 93.484375 297.015625 98.058594 L 297.015625 275.441406 C 297.015625 280.015625 295.195312 284.40625 291.960938 287.640625 C 288.726562 290.875 284.339844 292.691406 279.765625 292.691406 L 95.234375 292.691406 C 90.660156 292.691406 86.273438 290.875 83.039062 287.640625 C 79.804688 284.40625 77.984375 280.015625 77.984375 275.441406 L 77.984375 98.058594 C 77.984375 93.484375 79.804688 89.09375 83.039062 85.859375 C 86.273438 82.625 90.660156 80.808594 95.234375 80.808594 Z M 95.234375 80.808594 " clip-rule="nonzero"/></clipPath><clipPath id="bd4e797559"><path d="M 99 266 L 153.636719 266 L 153.636719 293 L 99 293 Z M 99 266 " clip-rule="nonzero"/></clipPath><clipPath id="9dada5b600"><path d="M 98.136719 288 L 104 288 L 104 292 L 98.136719 292 Z M 98.136719 288 " clip-rule="nonzero"/></clipPath><clipPath id="2c9a2d9824"><path d="M 161 266 L 215.332031 266 L 215.332031 293 L 161 293 Z M 161 266 " clip-rule="nonzero"/></clipPath><clipPath id="db95516387"><path d="M 159.832031 288 L 166 288 L 166 292 L 159.832031 292 Z M 159.832031 288 " clip-rule="nonzero"/></clipPath><clipPath id="e39b2e58ce"><path d="M 222 266 L 276.667969 266 L 276.667969 293 L 222 293 Z M 222 266 " clip-rule="nonzero"/></clipPath><clipPath id="8fcf559039"><path d="M 221.167969 288 L 227 288 L 227 292 L 221.167969 292 Z M 221.167969 288 " clip-rule="nonzero"/></clipPath></defs><g clip-path="url(#4537c70081)"><g clip-path="url(#2d5e992de4)"><path fill="#006e7f" d="M 77.984375 80.808594 L 297.316406 80.808594 L 297.316406 292.691406 L 77.984375 292.691406 Z M 77.984375 80.808594 " fill-opacity="1" fill-rule="nonzero"/></g></g><g clip-path="url(#bd4e797559)"><path fill="#f24c3d" d="M 153.761719 290.5625 C 153.820312 291.621094 153.125 292.515625 152.25 292.515625 L 100.230469 292.515625 C 99.808594 292.515625 99.476562 292.09375 99.484375 291.585938 C 99.472656 279.511719 106.066406 274.746094 112.90625 275.421875 L 120.746094 267.636719 C 121.222656 267.246094 121.875 267.210938 122.441406 267.011719 C 133.441406 264.003906 144.582031 267.609375 148.6875 279.128906 C 148.6875 279.132812 153.128906 278.976562 153.761719 290.5625 Z M 153.761719 290.5625 " fill-opacity="1" fill-rule="nonzero"/></g><path fill="#ffffff" d="M 129.910156 279.519531 L 126.84375 279.519531 C 126.636719 279.519531 126.464844 279.351562 126.464844 279.136719 C 126.53125 278.804688 126.230469 277.691406 126.84375 277.710938 L 129.910156 277.710938 C 130.519531 277.691406 130.226562 278.804688 130.292969 279.136719 C 130.292969 279.351562 130.121094 279.519531 129.910156 279.519531 Z M 129.910156 279.519531 " fill-opacity="1" fill-rule="nonzero"/><path fill="#ffffff" d="M 135.324219 279.519531 L 132.261719 279.519531 C 132.050781 279.519531 131.878906 279.351562 131.878906 279.136719 C 131.949219 278.804688 131.648438 277.691406 132.261719 277.710938 L 135.328125 277.710938 C 135.9375 277.691406 135.644531 278.804688 135.710938 279.136719 C 135.707031 279.351562 135.535156 279.519531 135.324219 279.519531 Z M 135.324219 279.519531 " fill-opacity="1" fill-rule="nonzero"/><path fill="#ffffff" d="M 120.886719 291.175781 C 121.03125 291.9375 120.699219 292.996094 119.765625 292.980469 L 106.417969 292.980469 C 105.796875 292.980469 105.28125 292.441406 105.28125 291.773438 C 105.269531 281.140625 120.148438 280.527344 120.886719 291.175781 Z M 120.886719 291.175781 " fill-opacity="1" fill-rule="nonzero"/><path fill="#1d2626" d="M 118.597656 292.253906 C 118.464844 300.0625 107.71875 300.0625 107.582031 292.253906 C 107.722656 284.445312 118.464844 284.445312 118.597656 292.253906 Z M 118.597656 292.253906 " fill-opacity="1" fill-rule="nonzero"/><path fill="#d6d6d6" d="M 114.957031 289.378906 C 114.40625 288.945312 113.699219 288.75 112.988281 288.789062 C 112.042969 288.8125 111.113281 289.238281 110.507812 290.085938 C 110.089844 290.636719 109.828125 291.363281 109.835938 292.253906 C 109.832031 292.824219 109.933594 293.308594 110.113281 293.714844 C 111.332031 296.726562 116.207031 296.421875 116.347656 292.253906 C 116.335938 290.90625 115.757812 289.945312 114.957031 289.378906 Z M 114.957031 289.378906 " fill-opacity="1" fill-rule="nonzero"/><path fill="#ffffff" d="M 149.761719 291.175781 C 149.910156 291.9375 149.574219 292.996094 148.640625 292.980469 L 135.296875 292.980469 C 134.671875 292.980469 134.160156 292.441406 134.160156 291.773438 C 134.148438 281.140625 149.027344 280.527344 149.761719 291.175781 Z M 149.761719 291.175781 " fill-opacity="1" fill-rule="nonzero"/><path fill="#1d2626" d="M 147.476562 292.253906 C 147.34375 300.0625 136.597656 300.0625 136.460938 292.253906 C 136.597656 284.445312 147.34375 284.445312 147.476562 292.253906 Z M 147.476562 292.253906 " fill-opacity="1" fill-rule="nonzero"/><path fill="#d6d6d6" d="M 143.832031 289.378906 C 143.285156 288.945312 142.578125 288.75 141.867188 288.789062 C 140.921875 288.8125 139.988281 289.238281 139.386719 290.085938 C 138.96875 290.636719 138.707031 291.363281 138.714844 292.253906 C 138.707031 292.824219 138.808594 293.308594 138.988281 293.714844 C 140.210938 296.726562 145.085938 296.421875 145.222656 292.253906 C 145.210938 290.90625 144.636719 289.945312 143.832031 289.378906 Z M 143.832031 289.378906 " fill-opacity="1" fill-rule="nonzero"/><g clip-path="url(#9dada5b600)"><path fill="#d6d6d6" d="M 103.371094 289.746094 C 103.375 290.394531 102.957031 291.035156 102.296875 291.046875 L 99.230469 291.046875 C 98.582031 291.042969 98.144531 290.378906 98.152344 289.746094 C 98.148438 289.097656 98.574219 288.457031 99.230469 288.445312 L 102.296875 288.445312 C 102.953125 288.46875 103.363281 289.070312 103.371094 289.746094 Z M 103.371094 289.746094 " fill-opacity="1" fill-rule="nonzero"/></g><path fill="#f2be21" d="M 102.464844 280.65625 C 102.296875 280.554688 102.058594 280.601562 101.777344 280.839844 C 101.457031 281.09375 101.097656 281.578125 100.746094 282.351562 C 100.621094 282.617188 100.527344 282.875 100.460938 283.121094 C 100.347656 283.523438 100.308594 283.867188 100.332031 284.128906 C 100.390625 285.367188 101.386719 285.65625 102.472656 283.335938 C 103.105469 281.925781 102.957031 280.859375 102.464844 280.65625 Z M 102.464844 280.65625 " fill-opacity="1" fill-rule="nonzero"/><path fill="#d6d6d6" d="M 121.066406 268.867188 L 114.976562 275.664062 C 114.351562 276.382812 113.398438 276.136719 112.90625 275.40625 L 120.746094 267.621094 C 121.089844 267.921875 121.453125 268.445312 121.066406 268.867188 Z M 121.066406 268.867188 " fill-opacity="1" fill-rule="nonzero"/><path fill="#d6d6d6" d="M 130.777344 267.542969 L 130.777344 276.613281 C 130.691406 276.332031 114.617188 277.214844 115.707031 276.179688 C 121.644531 270.3125 121.507812 267.238281 130.777344 267.542969 Z M 130.777344 267.542969 " fill-opacity="1" fill-rule="nonzero"/><path fill="#d6d6d6" d="M 145.324219 276.582031 L 131.457031 276.582031 L 131.457031 267.519531 C 135.542969 267.402344 139.738281 268.585938 142.460938 271.519531 C 143.625 272.664062 146.164062 276.300781 145.324219 276.582031 Z M 145.324219 276.582031 " fill-opacity="1" fill-rule="nonzero"/><g clip-path="url(#2c9a2d9824)"><path fill="#20a699" d="M 215.457031 290.5625 C 215.515625 291.621094 214.820312 292.515625 213.941406 292.515625 L 161.925781 292.515625 C 161.503906 292.515625 161.171875 292.09375 161.179688 291.585938 C 161.167969 279.511719 167.761719 274.746094 174.601562 275.421875 L 182.441406 267.636719 C 182.917969 267.246094 183.570312 267.210938 184.136719 267.011719 C 195.136719 264.003906 206.277344 267.609375 210.382812 279.128906 C 210.382812 279.132812 214.824219 278.976562 215.457031 290.5625 Z M 215.457031 290.5625 " fill-opacity="1" fill-rule="nonzero"/></g><path fill="#ffffff" d="M 191.605469 279.519531 L 188.539062 279.519531 C 188.328125 279.519531 188.15625 279.351562 188.15625 279.136719 C 188.226562 278.804688 187.925781 277.691406 188.539062 277.710938 L 191.605469 277.710938 C 192.214844 277.691406 191.921875 278.804688 191.988281 279.136719 C 191.988281 279.351562 191.816406 279.519531 191.605469 279.519531 Z M 191.605469 279.519531 " fill-opacity="1" fill-rule="nonzero"/><path fill="#ffffff" d="M 197.019531 279.519531 L 193.957031 279.519531 C 193.746094 279.519531 193.574219 279.351562 193.574219 279.136719 C 193.644531 278.804688 193.34375 277.691406 193.957031 277.710938 L 197.023438 277.710938 C 197.632812 277.691406 197.339844 278.804688 197.40625 279.136719 C 197.402344 279.351562 197.230469 279.519531 197.019531 279.519531 Z M 197.019531 279.519531 " fill-opacity="1" fill-rule="nonzero"/><path fill="#ffffff" d="M 182.578125 291.175781 C 182.726562 291.9375 182.390625 292.996094 181.457031 292.980469 L 168.113281 292.980469 C 167.492188 292.980469 166.976562 292.441406 166.976562 291.773438 C 166.964844 281.140625 181.84375 280.527344 182.578125 291.175781 Z M 182.578125 291.175781 " fill-opacity="1" fill-rule="nonzero"/><path fill="#1d2626" d="M 180.292969 292.253906 C 180.15625 300.0625 169.414062 300.0625 169.277344 292.253906 C 169.414062 284.445312 180.15625 284.445312 180.292969 292.253906 Z M 180.292969 292.253906 " fill-opacity="1" fill-rule="nonzero"/><path fill="#d6d6d6" d="M 176.648438 289.378906 C 176.101562 288.945312 175.394531 288.75 174.683594 288.789062 C 173.738281 288.8125 172.804688 289.238281 172.203125 290.085938 C 171.785156 290.636719 171.523438 291.363281 171.53125 292.253906 C 171.527344 292.824219 171.628906 293.308594 171.808594 293.714844 C 173.027344 296.726562 177.902344 296.421875 178.042969 292.253906 C 178.03125 290.90625 177.453125 289.945312 176.648438 289.378906 Z M 176.648438 289.378906 " fill-opacity="1" fill-rule="nonzero"/><path fill="#ffffff" d="M 211.457031 291.175781 C 211.605469 291.9375 211.269531 292.996094 210.335938 292.980469 L 196.992188 292.980469 C 196.367188 292.980469 195.855469 292.441406 195.855469 291.773438 C 195.84375 281.140625 210.722656 280.527344 211.457031 291.175781 Z M 211.457031 291.175781 " fill-opacity="1" fill-rule="nonzero"/><path fill="#1d2626" d="M 209.171875 292.253906 C 209.035156 300.0625 198.292969 300.0625 198.15625 292.253906 C 198.292969 284.445312 209.035156 284.445312 209.171875 292.253906 Z M 209.171875 292.253906 " fill-opacity="1" fill-rule="nonzero"/><path fill="#d6d6d6" d="M 205.527344 289.378906 C 204.980469 288.945312 204.273438 288.75 203.5625 288.789062 C 202.617188 288.8125 201.683594 289.238281 201.082031 290.085938 C 200.660156 290.636719 200.402344 291.363281 200.410156 292.253906 C 200.402344 292.824219 200.503906 293.308594 200.683594 293.714844 C 201.902344 296.726562 206.777344 296.421875 206.917969 292.253906 C 206.90625 290.90625 206.332031 289.945312 205.527344 289.378906 Z M 205.527344 289.378906 " fill-opacity="1" fill-rule="nonzero"/><g clip-path="url(#db95516387)"><path fill="#d6d6d6" d="M 165.066406 289.746094 C 165.066406 290.394531 164.652344 291.035156 163.992188 291.046875 L 160.925781 291.046875 C 160.277344 291.042969 159.839844 290.378906 159.847656 289.746094 C 159.84375 289.097656 160.265625 288.457031 160.925781 288.445312 L 163.992188 288.445312 C 164.648438 288.46875 165.058594 289.070312 165.066406 289.746094 Z M 165.066406 289.746094 " fill-opacity="1" fill-rule="nonzero"/></g><path fill="#f2be21" d="M 164.160156 280.65625 C 163.992188 280.554688 163.75 280.601562 163.472656 280.839844 C 163.152344 281.09375 162.792969 281.578125 162.441406 282.351562 C 162.316406 282.617188 162.222656 282.875 162.15625 283.121094 C 162.042969 283.523438 162.003906 283.867188 162.027344 284.128906 C 162.085938 285.367188 163.082031 285.65625 164.167969 283.335938 C 164.800781 281.925781 164.652344 280.859375 164.160156 280.65625 Z M 164.160156 280.65625 " fill-opacity="1" fill-rule="nonzero"/><path fill="#d6d6d6" d="M 182.761719 268.867188 L 176.671875 275.664062 C 176.046875 276.382812 175.09375 276.136719 174.597656 275.40625 L 182.441406 267.621094 C 182.785156 267.921875 183.144531 268.445312 182.761719 268.867188 Z M 182.761719 268.867188 " fill-opacity="1" fill-rule="nonzero"/><path fill="#d6d6d6" d="M 192.472656 267.542969 L 192.472656 276.613281 C 192.386719 276.332031 176.3125 277.214844 177.402344 276.179688 C 183.335938 270.3125 183.203125 267.238281 192.472656 267.542969 Z M 192.472656 267.542969 " fill-opacity="1" fill-rule="nonzero"/><path fill="#d6d6d6" d="M 207.019531 276.582031 L 193.152344 276.582031 L 193.152344 267.519531 C 197.238281 267.402344 201.433594 268.585938 204.15625 271.519531 C 205.320312 272.664062 207.859375 276.300781 207.019531 276.582031 Z M 207.019531 276.582031 " fill-opacity="1" fill-rule="nonzero"/><g clip-path="url(#e39b2e58ce)"><path fill="#f29727" d="M 276.792969 290.5625 C 276.847656 291.621094 276.152344 292.515625 275.277344 292.515625 L 223.261719 292.515625 C 222.839844 292.515625 222.503906 292.09375 222.511719 291.585938 C 222.503906 279.511719 229.09375 274.746094 235.933594 275.421875 L 243.773438 267.636719 C 244.253906 267.246094 244.90625 267.210938 245.472656 267.011719 C 256.46875 264.003906 267.609375 267.609375 271.714844 279.128906 C 271.714844 279.132812 276.160156 278.976562 276.792969 290.5625 Z M 276.792969 290.5625 " fill-opacity="1" fill-rule="nonzero"/></g><path fill="#ffffff" d="M 252.9375 279.519531 L 249.875 279.519531 C 249.664062 279.519531 249.492188 279.351562 249.492188 279.136719 C 249.5625 278.804688 249.257812 277.691406 249.875 277.710938 L 252.9375 277.710938 C 253.546875 277.691406 253.257812 278.804688 253.320312 279.136719 C 253.320312 279.351562 253.148438 279.519531 252.9375 279.519531 Z M 252.9375 279.519531 " fill-opacity="1" fill-rule="nonzero"/><path fill="#ffffff" d="M 258.355469 279.519531 L 255.292969 279.519531 C 255.082031 279.519531 254.910156 279.351562 254.910156 279.136719 C 254.976562 278.804688 254.675781 277.691406 255.292969 277.710938 L 258.355469 277.710938 C 258.964844 277.691406 258.671875 278.804688 258.738281 279.136719 C 258.734375 279.351562 258.566406 279.519531 258.355469 279.519531 Z M 258.355469 279.519531 " fill-opacity="1" fill-rule="nonzero"/><path fill="#ffffff" d="M 243.914062 291.175781 C 244.0625 291.9375 243.726562 292.996094 242.792969 292.980469 L 229.445312 292.980469 C 228.824219 292.980469 228.308594 292.441406 228.308594 291.773438 C 228.300781 281.140625 243.179688 280.527344 243.914062 291.175781 Z M 243.914062 291.175781 " fill-opacity="1" fill-rule="nonzero"/><path fill="#1d2626" d="M 241.628906 292.253906 C 241.492188 300.0625 230.75 300.0625 230.613281 292.253906 C 230.75 284.445312 241.492188 284.445312 241.628906 292.253906 Z M 241.628906 292.253906 " fill-opacity="1" fill-rule="nonzero"/><path fill="#d6d6d6" d="M 237.984375 289.378906 C 237.4375 288.945312 236.726562 288.75 236.015625 288.789062 C 235.074219 288.8125 234.140625 289.238281 233.535156 290.085938 C 233.117188 290.636719 232.855469 291.363281 232.867188 292.253906 C 232.859375 292.824219 232.960938 293.308594 233.140625 293.714844 C 234.359375 296.726562 239.234375 296.421875 239.375 292.253906 C 239.363281 290.90625 238.789062 289.945312 237.984375 289.378906 Z M 237.984375 289.378906 " fill-opacity="1" fill-rule="nonzero"/><path fill="#ffffff" d="M 272.792969 291.175781 C 272.9375 291.9375 272.605469 292.996094 271.671875 292.980469 L 258.324219 292.980469 C 257.703125 292.980469 257.1875 292.441406 257.1875 291.773438 C 257.179688 281.140625 272.054688 280.527344 272.792969 291.175781 Z M 272.792969 291.175781 " fill-opacity="1" fill-rule="nonzero"/><path fill="#1d2626" d="M 270.507812 292.253906 C 270.371094 300.0625 259.628906 300.0625 259.492188 292.253906 C 259.628906 284.445312 270.371094 284.445312 270.507812 292.253906 Z M 270.507812 292.253906 " fill-opacity="1" fill-rule="nonzero"/><path fill="#d6d6d6" d="M 266.863281 289.378906 C 266.3125 288.945312 265.605469 288.75 264.894531 288.789062 C 263.949219 288.8125 263.019531 289.238281 262.414062 290.085938 C 261.996094 290.636719 261.734375 291.363281 261.742188 292.253906 C 261.738281 292.824219 261.839844 293.308594 262.019531 293.714844 C 263.238281 296.726562 268.113281 296.421875 268.253906 292.253906 C 268.242188 290.90625 267.667969 289.945312 266.863281 289.378906 Z M 266.863281 289.378906 " fill-opacity="1" fill-rule="nonzero"/><g clip-path="url(#8fcf559039)"><path fill="#d6d6d6" d="M 226.398438 289.746094 C 226.402344 290.394531 225.984375 291.035156 225.324219 291.046875 L 222.257812 291.046875 C 221.609375 291.042969 221.171875 290.378906 221.183594 289.746094 C 221.179688 289.097656 221.601562 288.457031 222.257812 288.445312 L 225.324219 288.445312 C 225.980469 288.46875 226.394531 289.070312 226.398438 289.746094 Z M 226.398438 289.746094 " fill-opacity="1" fill-rule="nonzero"/></g><path fill="#f2be21" d="M 225.496094 280.65625 C 225.324219 280.554688 225.085938 280.601562 224.804688 280.839844 C 224.484375 281.09375 224.125 281.578125 223.777344 282.351562 C 223.652344 282.617188 223.558594 282.875 223.492188 283.121094 C 223.375 283.523438 223.335938 283.867188 223.363281 284.128906 C 223.417969 285.367188 224.414062 285.65625 225.503906 283.335938 C 226.132812 281.925781 225.984375 280.859375 225.496094 280.65625 Z M 225.496094 280.65625 " fill-opacity="1" fill-rule="nonzero"/><path fill="#d6d6d6" d="M 244.097656 268.867188 L 238.003906 275.664062 C 237.382812 276.382812 236.425781 276.136719 235.933594 275.40625 L 243.773438 267.621094 C 244.121094 267.921875 244.480469 268.445312 244.097656 268.867188 Z M 244.097656 268.867188 " fill-opacity="1" fill-rule="nonzero"/><path fill="#d6d6d6" d="M 253.808594 267.542969 L 253.808594 276.613281 C 253.71875 276.332031 237.648438 277.214844 238.734375 276.179688 C 244.671875 270.3125 244.535156 267.238281 253.808594 267.542969 Z M 253.808594 267.542969 " fill-opacity="1" fill-rule="nonzero"/><path fill="#d6d6d6" d="M 268.355469 276.582031 L 254.484375 276.582031 L 254.484375 267.519531 C 258.570312 267.402344 262.765625 268.585938 265.492188 271.519531 C 266.652344 272.664062 269.195312 276.300781 268.355469 276.582031 Z M 268.355469 276.582031 " fill-opacity="1" fill-rule="nonzero"/><g fill="#ffffff" fill-opacity="1"><g transform="translate(142.220401, 198.218542)"><g><path d="M 23.4375 17.375 C 19.6875 17.375 16.203125 16.6875 12.984375 15.3125 C 9.765625 13.9375 7.171875 11.960938 5.203125 9.390625 C 3.234375 6.828125 2.25 3.722656 2.25 0.078125 C 2.25 -1.722656 2.5 -3.71875 3 -5.90625 C 3.5 -8.101562 4.296875 -10.523438 5.390625 -13.171875 L 10.78125 -11.078125 C 9.976562 -8.984375 9.378906 -7.0625 8.984375 -5.3125 C 8.585938 -3.5625 8.390625 -1.941406 8.390625 -0.453125 C 8.390625 2.097656 9.070312 4.242188 10.4375 5.984375 C 11.8125 7.734375 13.660156 9.046875 15.984375 9.921875 C 18.304688 10.796875 20.863281 11.234375 23.65625 11.234375 C 28.195312 11.234375 31.75 10.570312 34.3125 9.25 C 36.882812 7.925781 38.707031 6.253906 39.78125 4.234375 C 40.851562 2.210938 41.390625 0.148438 41.390625 -1.953125 C 41.390625 -5.242188 41.023438 -8.273438 40.296875 -11.046875 C 39.578125 -13.816406 38.796875 -16.671875 37.953125 -19.609375 L 44.015625 -21.265625 C 44.816406 -18.421875 45.363281 -16.359375 45.65625 -15.078125 C 45.957031 -13.804688 46.234375 -12.773438 46.484375 -11.984375 C 47.035156 -10.128906 47.671875 -8.765625 48.390625 -7.890625 C 49.117188 -7.023438 49.96875 -6.453125 50.9375 -6.171875 C 51.914062 -5.898438 53.023438 -5.765625 54.265625 -5.765625 C 55.222656 -5.765625 56.097656 -5.890625 56.890625 -6.140625 C 57.691406 -6.390625 58.425781 -6.988281 59.09375 -7.9375 C 59.769531 -8.882812 60.367188 -10.394531 60.890625 -12.46875 C 61.421875 -14.539062 61.910156 -17.421875 62.359375 -21.109375 L 68.046875 -20.0625 C 67.898438 -19.164062 67.722656 -18.066406 67.515625 -16.765625 C 67.316406 -15.472656 67.128906 -14.1875 66.953125 -12.90625 C 66.785156 -11.632812 66.703125 -10.578125 66.703125 -9.734375 C 66.703125 -9.035156 66.863281 -8.375 67.1875 -7.75 C 67.507812 -7.125 68.144531 -6.632812 69.09375 -6.28125 C 70.039062 -5.9375 71.515625 -5.765625 73.515625 -5.765625 C 75.003906 -5.765625 76.320312 -5.875 77.46875 -6.09375 C 78.625 -6.320312 79.515625 -6.882812 80.140625 -7.78125 C 80.765625 -8.6875 81.078125 -10.160156 81.078125 -12.203125 C 81.078125 -14.046875 80.640625 -16.414062 79.765625 -19.3125 C 78.890625 -22.207031 77.90625 -25.078125 76.8125 -27.921875 L 82.875 -30.171875 C 83.519531 -28.523438 84.128906 -26.691406 84.703125 -24.671875 C 85.273438 -22.648438 85.757812 -20.640625 86.15625 -18.640625 C 86.5625 -16.640625 86.765625 -14.894531 86.765625 -13.40625 C 86.765625 -10.007812 86.175781 -7.300781 85 -5.28125 C 83.832031 -3.257812 82.25 -1.8125 80.25 -0.9375 C 78.25 -0.0625 75.976562 0.375 73.4375 0.375 C 70.6875 0.375 68.523438 0.015625 66.953125 -0.703125 C 65.390625 -1.429688 64.257812 -2.570312 63.5625 -4.125 C 62.457031 -2.519531 61.15625 -1.367188 59.65625 -0.671875 C 58.164062 0.0234375 56.25 0.375 53.90625 0.375 C 52.457031 0.375 51.207031 0.1875 50.15625 -0.1875 C 49.101562 -0.5625 48.226562 -1.046875 47.53125 -1.640625 C 47.1875 0.648438 46.5625 2.914062 45.65625 5.15625 C 44.757812 7.40625 43.410156 9.453125 41.609375 11.296875 C 39.816406 13.148438 37.4375 14.625 34.46875 15.71875 C 31.5 16.820312 27.820312 17.375 23.4375 17.375 Z M 23.4375 17.375 "/></g></g></g></svg>